<svg width="133" height="132" viewBox="0 0 133 132" fill="none" xmlns="http://www.w3.org/2000/svg">
<mask id="mask0_119_1354" style="mask-type:luminance" maskUnits="userSpaceOnUse" x="0" y="0" width="133" height="132">
<path d="M0.502686 0H132.503V132H0.502686V0Z" fill="white"/>
</mask>
<g mask="url(#mask0_119_1354)">
<path d="M66.1881 131.371C102.465 131.371 131.874 101.963 131.874 65.6855C131.874 29.4084 102.465 0 66.1881 0C29.9111 0 0.502686 29.4084 0.502686 65.6855C0.502686 101.963 29.9111 131.371 66.1881 131.371Z" fill="white"/>
<path fill-rule="evenodd" clip-rule="evenodd" d="M45.417 81.2262C55.0334 81.2262 62.9946 74.1416 64.3662 64.9067H73.2989C74.6705 74.1416 82.6317 81.2262 92.2481 81.2262C102.829 81.2262 111.407 72.6493 111.407 62.0677C111.407 51.4871 102.829 42.9102 92.2481 42.9102C82.8792 42.9102 75.0819 49.6339 73.4175 58.5212H64.2476C62.5832 49.6349 54.7859 42.9102 45.417 42.9102C34.8364 42.9102 26.2584 51.4871 26.2584 62.0677C26.2584 72.6483 34.8364 81.2262 45.417 81.2262Z" fill="#4785C8"/>
<path d="M92.2467 74.84C99.6923 74.84 105.728 68.9629 105.728 61.7132C105.728 54.4635 99.6923 48.5864 92.2467 48.5864C84.801 48.5864 78.7651 54.4635 78.7651 61.7132C78.7651 68.9629 84.801 74.84 92.2467 74.84Z" fill="#FDFAEE"/>
<path d="M45.4146 74.84C52.8603 74.84 58.8962 68.9629 58.8962 61.7132C58.8962 54.4635 52.8603 48.5864 45.4146 48.5864C37.969 48.5864 31.9331 54.4635 31.9331 61.7132C31.9331 68.9629 37.969 74.84 45.4146 74.84Z" fill="#FDFAEE"/>
<mask id="mask1_119_1354" style="mask-type:luminance" maskUnits="userSpaceOnUse" x="31" y="48" width="28" height="27">
<path d="M45.4157 74.841C52.8614 74.841 58.8973 68.9639 58.8973 61.7142C58.8973 54.4645 52.8614 48.5874 45.4157 48.5874C37.9701 48.5874 31.9342 54.4645 31.9342 61.7142C31.9342 68.9639 37.9701 74.841 45.4157 74.841Z" fill="white"/>
</mask>
<g mask="url(#mask1_119_1354)">
<path d="M40.0953 71.2933C44.994 71.2933 48.9651 67.1633 48.9651 62.0688C48.9651 56.9742 44.994 52.8442 40.0953 52.8442C35.1967 52.8442 31.2255 56.9742 31.2255 62.0688C31.2255 67.1633 35.1967 71.2933 40.0953 71.2933Z" fill="#252D37"/>
</g>
<path fill-rule="evenodd" clip-rule="evenodd" d="M96.8172 62.7987C97.9052 62.1831 98.8622 61.2508 99.8398 59.9525C99.9295 59.8264 100.044 59.7197 100.175 59.6384C100.307 59.5572 100.453 59.5031 100.606 59.4795C100.759 59.4558 100.915 59.463 101.065 59.5006C101.215 59.5382 101.356 59.6056 101.48 59.6986C101.603 59.7916 101.707 59.9084 101.785 60.0421C101.862 60.1759 101.913 60.3238 101.932 60.4773C101.952 60.6307 101.94 60.7865 101.899 60.9355C101.857 61.0845 101.786 61.2236 101.69 61.3447C100.602 62.7884 99.419 63.9857 97.9567 64.8138C96.482 65.6481 94.8011 66.0637 92.7809 66.0637C90.8195 66.0637 89.2241 65.9698 87.3266 64.9014L87.0636 64.754L87.0605 64.7519C86.5274 64.4559 85.8426 64.0744 85.229 63.6351C84.5278 63.1339 83.7193 62.4213 83.3604 61.4591C83.3012 61.3155 83.2716 61.1614 83.2732 61.0061C83.2748 60.8507 83.3076 60.6973 83.3697 60.5549C83.4318 60.4125 83.522 60.284 83.6347 60.1772C83.7475 60.0704 83.8807 59.9873 84.0262 59.933C84.1717 59.8786 84.3267 59.8542 84.4819 59.861C84.6371 59.8678 84.7894 59.9057 84.9296 59.9726C85.0699 60.0395 85.1952 60.1339 85.2982 60.2502C85.4012 60.3665 85.4797 60.5023 85.5291 60.6496C85.6374 60.9383 85.9633 61.3137 86.5759 61.753C87.0729 62.1078 87.6257 62.4161 88.1609 62.7142L88.163 62.7162L88.463 62.8833C89.8243 63.6505 90.9226 63.7485 92.7809 63.7485C94.4649 63.7485 95.7416 63.4072 96.8172 62.7987ZM71.6826 63.7011C71.9616 63.5733 72.2799 63.5615 72.5676 63.6682C72.8553 63.7749 73.0889 63.9915 73.2171 64.2703C75.0207 68.1994 76.6253 72.1563 78.231 76.1142L78.462 76.6845C78.7497 77.393 79.0426 78.0241 79.3468 78.6789C79.5778 79.177 79.815 79.6896 80.0625 80.2609C80.5967 81.4984 81.0845 82.8287 81.299 84.2993C81.4701 85.4739 81.1319 86.4608 80.3853 87.1764C79.7026 87.8313 78.7806 88.1613 77.935 88.3448C76.4634 88.6635 74.7258 88.6264 73.6265 88.6027C73.4817 88.5994 73.337 88.5966 73.1923 88.5944C70.8844 88.5635 68.43 88.3675 66.1179 87.8189C66.0084 87.7977 65.8984 87.7794 65.7879 87.7643C65.5811 87.7343 65.3751 87.6989 65.1702 87.658C64.9199 87.6098 64.6748 87.538 64.438 87.4435C64.239 87.36 63.7986 87.1517 63.5511 86.6835C63.4224 86.4377 63.3862 86.1538 63.4491 85.8835C63.512 85.6132 63.6699 85.3745 63.8941 85.2109C64.1182 85.0472 64.3936 84.9695 64.6702 84.9918C64.9469 85.0141 65.2062 85.1351 65.4012 85.3326C65.4559 85.3491 65.5353 85.3697 65.6394 85.3913C65.7941 85.4223 65.9612 85.4491 66.1355 85.4759L66.1767 85.4821C66.319 85.5027 66.5067 85.5326 66.6511 85.5667C68.7404 86.0617 71.0122 86.2504 73.2232 86.2793L73.71 86.2875C74.8382 86.3102 76.2654 86.337 77.4452 86.0813C78.1217 85.9358 78.5527 85.7265 78.7827 85.5058C78.9477 85.348 79.0797 85.1263 79.0075 84.6334C78.8363 83.4578 78.4393 82.3409 77.9371 81.1787C77.7473 80.7414 77.5246 80.2598 77.2946 79.7607C76.9516 79.0327 76.6253 78.2968 76.316 77.5539L76.0911 76.999C74.4814 73.0287 72.8943 69.1162 71.1133 65.2366C70.9852 64.9575 70.9732 64.6389 71.0799 64.351C71.1867 64.063 71.4035 63.8292 71.6826 63.7011ZM54.7154 88.9801C54.6936 88.8296 54.6424 88.6849 54.5646 88.5543C54.4869 88.4236 54.3842 88.3096 54.2624 88.2186C54.1406 88.1276 54.0021 88.0615 53.8547 88.0241C53.7074 87.9867 53.5541 87.9786 53.4036 88.0004C53.0998 88.0444 52.8259 88.2074 52.6421 88.4534C52.5512 88.5752 52.4851 88.7137 52.4476 88.8611C52.4102 89.0084 52.4022 89.1617 52.424 89.3122C52.8086 91.9676 54.4576 94.1951 56.4221 95.743C58.3805 97.2837 60.7998 98.2696 62.9386 98.3036C63.2407 98.3011 63.5299 98.1806 63.7444 97.9678C63.959 97.755 64.0818 97.4668 64.0868 97.1647C64.0918 96.8625 63.9785 96.5704 63.7711 96.3507C63.5637 96.131 63.2786 96.001 62.9767 95.9885C61.4556 95.9637 59.5117 95.2274 57.8545 93.9239C56.2055 92.6245 54.9907 90.8827 54.7154 88.9801Z" fill="#252D37"/>
</g>
</svg>
