<svg width="132" height="132" viewBox="0 0 132 132" fill="none" xmlns="http://www.w3.org/2000/svg">
<path d="M65.7045 131.685C101.982 131.685 131.39 102.277 131.39 65.9999C131.39 29.7228 101.982 0.314453 65.7045 0.314453C29.4274 0.314453 0.019043 29.7228 0.019043 65.9999C0.019043 102.277 29.4274 131.685 65.7045 131.685Z" fill="white"/>
<path d="M50.3895 59.0484C40.1141 55.4308 39.5366 47.0375 39.5366 47.0375L49.3758 37.7769L73.6864 47.0375L82.9471 61.7978L76.0016 74.2419C64.6187 76.4611 41.5867 81.0141 40.5266 81.4771C39.4675 81.9412 29.2623 69.4672 37.6556 67.4418C37.6556 67.4418 60.6628 62.6671 50.3895 59.0484Z" fill="#FF8A56"/>
<path fill-rule="evenodd" clip-rule="evenodd" d="M105.709 61.176C106.177 63.2983 104.83 65.631 102.486 67.2119C104.78 68.866 106.051 71.241 105.516 73.3478C104.774 76.2693 100.838 77.5708 96.7256 76.2539C93.6782 75.2773 91.3888 73.1395 90.7082 70.9079L84.9157 70.815L85.0291 63.686L90.6618 63.7757C91.1413 61.3379 93.6463 58.9546 97.0143 57.9925C101.167 56.8065 105.06 58.2317 105.709 61.176ZM101.784 62.6682C101.794 63.0086 101.735 63.3476 101.611 63.665C101.488 63.9824 101.302 64.2717 101.064 64.516C100.827 64.7602 100.543 64.9544 100.229 65.0869C99.9154 65.2195 99.5783 65.2878 99.2377 65.2878C98.8971 65.2878 98.5599 65.2195 98.2462 65.0869C97.9325 64.9544 97.6485 64.7602 97.4111 64.516C97.1737 64.2717 96.9877 63.9824 96.8641 63.665C96.7405 63.3476 96.6818 63.0086 96.6915 62.6682C96.7104 62.0054 96.9869 61.3762 97.4624 60.9141C97.9378 60.452 98.5747 60.1935 99.2377 60.1935C99.9007 60.1935 100.538 60.452 101.013 60.9141C101.488 61.3762 101.765 62.0054 101.784 62.6682ZM99.2367 73.8727C99.5771 73.8824 99.9161 73.8237 100.233 73.7001C100.551 73.5765 100.84 73.3905 101.084 73.1531C101.329 72.9157 101.523 72.6318 101.655 72.318C101.788 72.0043 101.856 71.6671 101.856 71.3265C101.856 70.9859 101.788 70.6488 101.655 70.3351C101.523 70.0213 101.329 69.7374 101.084 69.5C100.84 69.2626 100.551 69.0766 100.233 68.953C99.9161 68.8294 99.5771 68.7707 99.2367 68.7804C98.5739 68.7993 97.9446 69.0758 97.4826 69.5512C97.0205 70.0267 96.7619 70.6635 96.7619 71.3265C96.7619 71.9896 97.0205 72.6264 97.4826 73.1019C97.9446 73.5773 98.5739 73.8538 99.2367 73.8727ZM66.2728 75.9228C66.2744 75.7708 66.246 75.62 66.1894 75.4789C66.1327 75.3378 66.0488 75.2093 65.9425 75.1007C65.8361 74.992 65.7094 74.9054 65.5696 74.8457C65.4298 74.7861 65.2796 74.7545 65.1276 74.7529C64.8205 74.7496 64.5248 74.8684 64.3054 75.0832C64.086 75.2979 63.9609 75.5911 63.9576 75.8981C63.9236 79.1661 63.9349 82.4362 63.9473 85.698C63.9524 87.3254 63.9576 88.9496 63.9576 90.5707C63.9576 90.68 63.9432 90.7976 63.9122 91.01L63.9081 91.0327L63.8988 91.0997C63.6132 91.11 63.3347 91.1286 63.0707 91.1461L63.0511 91.1472C62.5963 91.1771 62.1828 91.2029 61.7724 91.2029H60.2327C60.1162 91.2029 60.0079 91.1884 59.8223 91.1616L59.615 91.1348C59.3448 91.0987 58.9375 91.0523 58.5013 91.1307C58.0877 91.2029 57.6443 91.1925 57.0575 91.1719L57.0101 91.1699C56.4738 91.1513 55.8045 91.1276 55.1332 91.2462C54.7052 91.3225 54.2773 91.3596 53.8235 91.3905L53.4811 91.4132C53.1346 91.4349 52.7634 91.4586 52.4055 91.4957C51.4083 91.5999 50.3255 91.8299 49.2355 92.5548L49.1736 92.5961C48.857 92.8054 48.1217 93.2911 47.5587 93.8624C47.2668 94.1584 46.909 94.5854 46.7409 95.1082C46.6358 95.4239 46.6152 95.7617 46.6811 96.0879C46.7584 96.4591 46.9471 96.7757 47.2008 97.0284C47.5463 97.3739 47.9794 97.5719 48.362 97.6946C48.7549 97.8204 49.1829 97.8926 49.5985 97.9349L49.6294 97.938C49.5676 98.0332 49.5121 98.1324 49.4634 98.235C49.2468 98.6918 49.1561 99.2714 49.1922 99.7942C49.2252 100.279 49.3963 101.063 50.0832 101.538C50.6503 101.93 51.2547 102.023 51.7445 102.027C51.7968 102.448 51.9911 102.838 52.2952 103.133C52.6417 103.477 53.0758 103.675 53.4595 103.796C53.8544 103.922 54.2824 103.994 54.7001 104.036L54.7351 104.04C54.6743 104.133 54.6186 104.231 54.5701 104.334C54.3515 104.791 54.2608 105.371 54.2968 105.895C54.3309 106.381 54.5031 107.167 55.193 107.64C56.0541 108.231 56.9987 108.139 57.5051 108.09C57.5814 108.082 57.6474 108.076 57.702 108.073C57.7814 108.069 57.8588 108.062 57.9361 108.053C57.9348 108.091 57.9341 108.128 57.9341 108.165C57.9341 109.365 58.5394 110.321 59.4768 110.819C60.374 111.295 61.463 111.3 62.4375 110.913C63.9999 110.294 64.9837 108.959 65.7283 107.948L65.7458 107.926C66.0428 107.521 66.6997 106.943 67.2019 106.592C67.5371 106.358 67.7227 106.238 67.898 106.153C68.0568 106.076 68.2404 106.01 68.5663 105.937C69.8667 105.651 71.2527 105.642 72.7531 105.642C73.0601 105.642 73.3546 105.52 73.5717 105.303C73.7887 105.086 73.9107 104.792 73.9107 104.485C73.9107 104.178 73.7887 103.883 73.5717 103.666C73.3546 103.449 73.0601 103.327 72.7531 103.327H72.7407C71.2836 103.327 69.6501 103.327 68.0671 103.677C67.6165 103.776 67.2473 103.893 66.8791 104.074C66.5285 104.246 66.2129 104.46 65.8768 104.694C65.2735 105.115 64.3897 105.862 63.8813 106.552C63.0728 107.648 62.4478 108.42 61.5837 108.761C61.1423 108.936 60.7721 108.886 60.5627 108.774C60.3957 108.686 60.2492 108.525 60.2492 108.165C60.2492 107.791 60.4359 107.422 60.87 106.778L60.9133 106.716C61.1083 106.566 61.2774 106.417 61.4238 106.288L61.4341 106.28C61.5094 106.213 61.5713 106.139 61.5868 106.121L61.5888 106.119C61.7539 105.919 61.9081 105.71 62.0508 105.493C62.0787 105.451 62.1148 105.392 62.1488 105.328C62.174 105.28 62.1963 105.23 62.2158 105.179L62.2179 105.176C62.2715 105.038 62.2991 104.891 62.2993 104.742V104.739C62.2993 104.652 62.2993 104.102 61.7992 103.741C61.2268 103.328 60.6514 103.6 60.5586 103.646C60.3936 103.727 60.274 103.831 60.2183 103.88C60.1561 103.937 60.0969 103.997 60.0409 104.059C59.8732 104.251 59.7192 104.453 59.5799 104.666C59.5056 104.775 59.425 104.88 59.3386 104.979L59.317 105.005L59.3067 105.019C58.5817 105.481 58.1114 105.731 57.5742 105.761C57.4566 105.767 57.3225 105.779 57.2132 105.787L57.0792 105.797C56.9399 105.807 56.843 105.811 56.7636 105.807C56.7124 105.806 56.6615 105.799 56.612 105.786C56.5966 105.637 56.6114 105.486 56.6553 105.342C56.7237 105.226 56.8129 105.123 56.9183 105.038C57.0692 104.907 57.2346 104.794 57.4112 104.7C57.6175 104.592 57.8093 104.473 57.964 104.377L57.9743 104.371C58.1403 104.268 58.2692 104.188 58.4002 104.119C58.5889 104.019 58.7374 103.897 58.8261 103.82L58.8374 103.81C58.9364 103.79 59.0251 103.772 59.1035 103.753C59.2015 103.73 59.3221 103.7 59.4335 103.658C59.4768 103.642 59.5923 103.598 59.7161 103.518C59.8893 103.408 60.0302 103.253 60.1245 103.071C60.2188 102.888 60.2632 102.684 60.2531 102.479C60.2431 102.273 60.1789 102.075 60.0672 101.902C59.9555 101.73 59.8002 101.59 59.6171 101.497C59.525 101.449 59.4273 101.414 59.3263 101.391C59.2387 101.371 59.1497 101.359 59.0602 101.356C58.9327 101.351 58.805 101.352 58.6776 101.361C58.3899 101.38 58.1114 101.47 57.867 101.623C57.6226 101.656 57.337 101.69 57.0286 101.715C56.3274 101.775 55.5673 101.796 54.928 101.732C54.7061 101.712 54.4862 101.675 54.27 101.622L54.2989 101.593C54.6867 101.202 55.2394 100.837 55.5735 100.616L55.6168 100.587C56.2789 100.15 56.9523 99.986 57.7618 99.9015C58.0702 99.8705 58.3723 99.8509 58.7054 99.8303L59.1035 99.8045C59.6278 99.7744 60.15 99.7158 60.6679 99.6292C61.0804 99.557 61.5259 99.5684 62.1168 99.589L62.1591 99.591C62.7005 99.6096 63.3749 99.6333 64.0545 99.5137C64.1185 99.5034 64.2247 99.5024 64.4701 99.5343L64.5805 99.5488C64.7867 99.5776 65.0971 99.6209 65.391 99.6209H66.94C67.435 99.6209 67.9197 99.59 68.361 99.5622H68.3744C68.8323 99.5312 69.2448 99.5055 69.6522 99.5055H69.6656C69.7687 99.5055 69.9244 99.5055 70.0678 99.49C70.3477 99.464 70.614 99.3568 70.834 99.1816C71.166 98.9094 71.2702 98.5608 71.3083 98.3587C71.3336 98.2019 71.3446 98.0431 71.3413 97.8843C71.3413 97.7771 71.3568 97.6605 71.3878 97.4481L71.3908 97.4254C71.4187 97.2398 71.4579 96.9675 71.4579 96.6757C71.4579 95.037 71.4527 93.4035 71.4476 91.7731C71.4352 88.5237 71.4238 85.2845 71.4579 82.034C71.4638 81.8793 71.4387 81.725 71.384 81.5802C71.3294 81.4354 71.2462 81.303 71.1395 81.1909C71.0327 81.0788 70.9046 80.9892 70.7626 80.9274C70.6207 80.8657 70.4678 80.833 70.313 80.8314C70.1582 80.8297 70.0047 80.8591 69.8614 80.9178C69.7182 80.9765 69.5882 81.0633 69.4791 81.1731C69.37 81.283 69.284 81.4135 69.2262 81.5571C69.1685 81.7008 69.1401 81.8545 69.1427 82.0093C69.1156 85.2741 69.1118 88.5392 69.1314 91.8041C69.1376 93.4314 69.1427 95.0546 69.1427 96.6757C69.1427 96.784 69.1283 96.9015 69.0973 97.1129L69.0932 97.1356L69.0829 97.2027C68.7942 97.214 68.5126 97.2326 68.2455 97.2501H68.2249C67.7691 97.281 67.3525 97.3068 66.94 97.3068H65.39C65.2714 97.3068 65.1631 97.2914 64.9754 97.2656C64.906 97.2561 64.8366 97.2468 64.7671 97.2377C64.4959 97.2027 64.0875 97.1573 63.6513 97.2336C63.2337 97.3079 62.7871 97.2955 62.1973 97.2749L62.1498 97.2738C61.6105 97.2542 60.9391 97.2305 60.2647 97.3501C59.8336 97.4254 59.4036 97.4636 58.9457 97.4945L58.6023 97.5172C58.2415 97.5373 57.8812 97.5648 57.5216 97.5997C56.5202 97.7028 55.4343 97.9328 54.3391 98.6567L54.2772 98.697C54.004 98.8764 53.4213 99.259 52.9047 99.7241C52.761 99.6742 52.6089 99.6531 52.4571 99.6622C52.3395 99.6674 52.2055 99.6787 52.0962 99.687L51.9642 99.6973C51.8603 99.7066 51.756 99.71 51.6517 99.7076C51.6026 99.7067 51.5537 99.6998 51.5063 99.687C51.4904 99.5364 51.5048 99.3843 51.5486 99.2394L51.5517 99.2322L51.5537 99.228C51.5743 99.1868 51.6465 99.0785 51.8105 98.9352C51.9652 98.799 52.1446 98.6794 52.3003 98.5969C52.5066 98.4886 52.6963 98.37 52.85 98.2741L52.8603 98.268C53.0263 98.1648 53.1542 98.0854 53.2831 98.0163C53.4357 97.9328 53.5782 97.8321 53.708 97.7162L53.7183 97.707C53.8152 97.6884 53.9039 97.6698 53.9813 97.6513C54.0793 97.6286 54.1989 97.5966 54.3103 97.5554C54.3536 97.5389 54.4701 97.4955 54.5928 97.4141C54.765 97.3033 54.905 97.1491 54.9986 96.967C55.0923 96.785 55.1363 96.5814 55.1263 96.3769C55.1162 96.1724 55.0525 95.9741 54.9415 95.8021C54.8304 95.6301 54.676 95.4903 54.4938 95.3969C54.4015 95.349 54.3034 95.313 54.202 95.2897C54.1145 95.27 54.0255 95.2579 53.9359 95.2536C53.8087 95.2487 53.6814 95.2505 53.5543 95.2588C53.2669 95.2776 52.9887 95.3676 52.7448 95.5207C52.5014 95.5547 52.2189 95.5877 51.9136 95.6135C51.2165 95.6733 50.4616 95.694 49.8264 95.631C49.6066 95.6113 49.3887 95.5744 49.1746 95.5207L49.2056 95.4877C49.5923 95.0969 50.1409 94.7318 50.474 94.5111L50.5163 94.4822C51.1742 94.046 51.8414 93.8831 52.6458 93.7985C52.9511 93.7665 53.2512 93.747 53.5822 93.7263L53.9782 93.7016C54.4577 93.6686 54.9837 93.6242 55.5354 93.5263C55.9458 93.4541 56.3862 93.4644 56.974 93.485L57.0173 93.4871C57.5546 93.5067 58.2269 93.5304 58.9045 93.4097C58.9663 93.3994 59.0695 93.3984 59.3139 93.4304L59.4232 93.4448C59.6284 93.4737 59.9388 93.518 60.2317 93.518H61.7734C62.2653 93.518 62.7479 93.4871 63.1873 93.4582H63.2007C63.6554 93.4283 64.0669 93.4025 64.4701 93.4025H64.4835C64.5867 93.4025 64.7413 93.4025 64.8857 93.386C65.026 93.3705 65.3529 93.3231 65.6519 93.0766C65.983 92.8034 66.0861 92.4548 66.1232 92.2537C66.1486 92.0976 66.16 91.9395 66.1573 91.7814C66.1573 91.6721 66.1717 91.5545 66.2026 91.3431L66.2068 91.3204C66.2336 91.1348 66.2728 90.8625 66.2728 90.5707C66.2728 88.931 66.2676 87.2985 66.2624 85.6671C66.2501 82.4156 66.2387 79.1754 66.2728 75.9228Z" fill="#252D37"/>
<path d="M89.3403 51.0172L52.505 27.7039C50.128 26.1995 46.9816 26.9069 45.4773 29.2838L40.8474 36.5991C39.343 38.976 40.0503 42.1224 42.4273 43.6267L79.2626 66.9401C81.6395 68.4444 84.7859 67.7371 86.2902 65.3602L90.9201 58.0449C92.4245 55.668 91.7172 52.5216 89.3403 51.0172Z" fill="#4785C8"/>
<path d="M80.7444 65.4598L37.0686 70.6215C34.2751 70.9516 32.2781 73.4838 32.6083 76.2774L33.3237 82.331C33.6538 85.1245 36.1861 87.1215 38.9796 86.7913L82.6554 81.6297C85.4489 81.2996 87.4459 78.7673 87.1158 75.9738L86.4003 69.9202C86.0702 67.1267 83.538 65.1297 80.7444 65.4598Z" fill="#4785C8"/>
<path fill-rule="evenodd" clip-rule="evenodd" d="M40.4957 48.4337C42.9325 49.8403 46.1603 48.807 47.7072 46.1267C49.2541 43.4455 48.5322 40.1352 46.0953 38.7286C43.6585 37.323 40.4297 38.3563 38.8838 41.0365C37.3369 43.7167 38.0588 47.0281 40.4957 48.4337ZM49.3201 53.5249C51.7559 54.9305 54.9847 53.8972 56.5306 51.217C58.0774 48.5368 57.3556 45.2254 54.9187 43.8198C52.4829 42.4142 49.253 43.4465 47.7072 46.1267C46.1603 48.808 46.8832 52.1193 49.3201 53.5249ZM65.3034 56.3959C63.738 59.0091 60.5545 60.0043 58.1445 58.6142C55.7087 57.2086 54.9868 53.8962 56.5326 51.216C58.0795 48.5358 61.3073 47.5035 63.7442 48.9091C66.1542 50.2992 66.8864 53.5538 65.4065 56.2175C66.972 53.6043 70.1554 52.6102 72.5655 54.0003C75.0013 55.4049 75.7232 58.7173 74.1773 61.3975C74.0126 61.6829 73.8254 61.9546 73.6173 62.2101C74.1629 63.0145 74.5217 63.9839 74.6166 65.0471C74.892 68.1285 72.8429 70.8303 70.042 71.0799C67.2401 71.3305 64.7455 69.0349 64.4712 65.9525C64.3445 64.6349 64.6633 63.3128 65.3766 62.1977C64.3206 60.5797 64.2278 58.3326 65.3034 56.3959ZM54.2319 66.858C54.5062 69.9404 52.4582 72.6412 49.6562 72.8908C46.8543 73.1414 44.3608 70.8458 44.0854 67.7634C43.8101 64.682 45.8592 61.9812 48.6601 61.7306C51.462 61.481 53.9576 63.7766 54.2319 66.858ZM39.6047 74.7192C42.4066 74.4686 44.4546 71.7678 44.1793 68.6864C43.905 65.604 41.4104 63.3084 38.6085 63.559C35.8066 63.8086 33.7585 66.5094 34.0338 69.5918C34.3092 72.6732 36.8027 74.9688 39.6047 74.7192ZM64.4702 65.9536C64.7455 69.0349 62.6964 71.7358 59.8955 71.9864C57.0936 72.2359 54.599 69.9404 54.3247 66.858C54.0494 63.7766 56.0985 61.0747 58.8993 60.8252C61.7012 60.5756 64.1958 62.8712 64.4712 65.9525L64.4702 65.9536Z" fill="#FDFAEE"/>
</svg>
