<svg width="132" height="132" viewBox="0 0 132 132" fill="none" xmlns="http://www.w3.org/2000/svg">
<path d="M65.8173 131.685C102.094 131.685 131.503 102.277 131.503 65.9999C131.503 29.7228 102.094 0.314453 65.8173 0.314453C29.5402 0.314453 0.131836 29.7228 0.131836 65.9999C0.131836 102.277 29.5402 131.685 65.8173 131.685Z" fill="white"/>
<path fill-rule="evenodd" clip-rule="evenodd" d="M45.1513 33.5867C46.5321 33.3138 47.9341 33.1623 49.3413 33.134C45.206 34.554 41.5863 37.6302 39.4207 41.1684C39.2814 41.3963 39.1464 41.6273 39.0164 41.8594C37.1509 42.4792 35.3699 43.3341 33.8148 44.5025C33.7378 44.56 33.6615 44.6184 33.5859 44.6778C33.7543 43.4692 34.1378 42.3006 34.7182 41.2272C36.858 37.2414 40.7283 34.4798 45.1513 33.5867ZM31.2119 47.0868C31.0366 44.7788 31.4594 42.4028 32.6784 40.132C35.1606 35.51 39.6269 32.3399 44.6934 31.3179C49.0618 30.4362 53.4137 30.8539 57.5892 31.4376C62.6186 32.1419 66.3528 32.9494 71.0677 34.9696C72.5867 35.6188 74.0528 36.3857 75.4525 37.2631C76.391 37.2528 77.2995 37.3745 78.0864 37.5663C79.9003 38.0077 81.3554 38.8914 82.463 40.0495C83.9732 40.1672 85.4663 40.4483 86.9159 40.8879C92.9322 42.7483 96.5684 47.0754 98.0916 52.9773C98.4185 54.2468 98.5433 55.4935 98.5721 56.7269C100.14 58.2202 101.599 59.9516 102.555 61.9028C104.635 66.1515 103.262 71.0943 101.67 74.7583C104.496 79.2628 103.81 84.7666 101.795 89.1855C100.418 92.2071 98.4721 95.4091 95.6124 97.5562C91.2585 100.825 85.3371 101.958 80.2252 102.25C79.9859 102.474 79.7384 102.697 79.4858 102.91C78.8031 103.484 78.0111 104.047 77.1685 104.369C76.3054 104.699 75.2886 104.809 74.3017 104.307C73.4839 103.891 72.7527 103.22 72.1412 102.533C70.3272 102.467 68.537 102.255 66.787 102.01C66.4078 101.957 66.029 101.902 65.6505 101.845C63.8262 102.487 61.8699 102.744 59.8291 102.421C57.88 102.111 56.1579 101.21 54.6543 100.043C51.3007 102.138 47.188 102.587 43.6426 102.735C40.5829 102.864 37.4242 102.638 34.4026 101.704C27.5159 99.5754 23.3528 94.6295 21.6079 87.8634C21.1211 85.9773 21.0263 84.1344 21.0531 82.2988V81.9307C21.0492 81.6385 21.0509 81.3462 21.0582 81.0541C21.0747 80.59 21.1263 80.0187 21.3212 79.4866C21.6502 78.5863 22.4649 78.278 23.0485 78.1872C23.6333 78.0944 24.2757 78.1594 24.8161 78.2491C25.3761 78.3419 25.9319 78.4822 26.3723 78.5977L26.6579 78.6729C26.9714 78.7554 27.1457 78.8019 27.2292 78.8142C28.0161 78.9277 28.7967 78.9957 29.5805 79.0256C29.475 78.6663 29.3753 78.3053 29.2814 77.9428C28.6932 77.2022 28.184 76.4021 27.7624 75.5555C25.9443 71.8409 27.1261 67.5427 28.4925 64.3726C26.0598 60.426 26.6734 55.6348 28.4172 51.8078C29.1422 50.2177 30.0507 48.5625 31.2119 47.0868ZM29.4856 60.8282C28.8349 58.2604 29.3309 55.3873 30.5251 52.769C30.9139 51.913 31.347 51.0705 31.8307 50.2682C32.0349 50.9189 32.2834 51.5573 32.5701 52.1781C32.8361 52.7535 33.1352 53.3155 33.4662 53.8621C31.744 55.9143 30.4014 58.3068 29.4856 60.8282ZM31.3986 76.8796C30.7759 74.2966 30.437 71.6533 30.3879 68.9967C30.3749 68.2607 30.4045 67.5245 30.4766 66.7919C32.0648 68.3182 34.0427 69.5505 36.0557 70.5147C36.197 71.117 36.3589 71.711 36.5424 72.2967C37.156 74.2479 38.1667 76.0072 39.7641 77.256C39.7093 77.528 39.666 77.8023 39.6341 78.0779C37.9635 78.4904 36.1588 78.6534 34.2572 78.8256L33.4219 78.9019L33.3806 78.906C32.6727 78.2785 32.0103 77.6013 31.3986 76.8796ZM32.931 81.5666C34.7491 85.8855 37.5984 89.6176 41.6657 91.7729C42.3917 92.1576 43.1476 92.4969 43.9272 92.7939C43.6204 92.2285 43.3753 91.6317 43.1961 91.0139C42.8603 89.8396 42.7336 88.6155 42.8217 87.3973C42.698 87.0941 42.5825 86.7848 42.4752 86.4723C39.1164 85.6194 35.9361 83.9354 33.4848 82.0101C33.3023 81.8657 33.1166 81.7182 32.931 81.5666ZM53.6736 94.052C53.4488 94.1964 53.1982 94.3129 52.929 94.4036C52.7595 94.4023 52.59 94.3996 52.4206 94.3954C52.1952 94.1031 51.9741 93.8074 51.7575 93.5085C50.8603 92.2885 50.0596 91.0004 49.3629 89.6558C50.0064 90.0064 50.6644 90.3292 51.3326 90.6189C51.99 91.8428 52.7746 92.9928 53.6736 94.052ZM67.1964 98.574C65.239 98.0058 63.3096 96.8549 61.6029 95.5906C63.1727 95.1368 64.6649 94.4484 66.029 93.5487C66.4139 93.8582 66.8102 94.1534 67.217 94.4335C67.5645 94.6749 67.9347 94.91 68.3214 95.1338C68.4669 95.8917 68.6752 96.6425 68.9526 97.3809L68.7783 97.5128C68.2627 97.9016 67.7347 98.2564 67.1964 98.574ZM76.5776 100.012C76.1827 100.005 75.7836 99.9951 75.3845 99.9786C78.4153 98.5864 81.0192 96.2011 82.661 93.5157C83.131 92.7431 83.5449 91.9377 83.8995 91.1057C85.1294 90.6346 86.3311 90.093 87.4986 89.4835C87.4522 90.822 87.0964 92.1316 86.4591 93.3095C85.4645 95.154 84.0299 96.7243 82.2825 97.881C82.0981 97.8188 81.9009 97.8042 81.7093 97.8384C81.5177 97.8727 81.3378 97.9547 81.1863 98.077C80.8375 98.3719 80.5046 98.6852 80.1891 99.0154C79.3434 99.3804 78.4545 99.6589 77.5388 99.8445C77.2191 99.9084 76.8994 99.9641 76.5776 100.012ZM83.9459 99.5475C87.6904 98.9824 91.3884 97.8346 94.2223 95.7061C96.6282 93.9004 98.3752 91.1067 99.688 88.2254C101.311 84.6666 101.84 80.6746 100.397 77.3076C97.8791 81.7481 94.1378 85.4586 89.7756 88.18C89.954 90.2425 89.59 92.371 88.4989 94.4057C87.399 96.4485 85.8406 98.2085 83.9459 99.5475ZM89.3084 85.7288C93.4076 83.0032 96.8417 79.3309 99.0022 75.0017C97.4058 73.0134 95.0391 71.3841 92.4981 70.1167C92.3867 74.4314 90.7449 78.9947 87.8708 82.4628C88.1369 82.9103 88.3793 83.3703 88.5968 83.8405C88.8794 84.4521 89.1187 85.0842 89.3084 85.7288ZM92.4197 67.5148C95.1979 68.7771 97.9689 70.4745 100.028 72.6587C101.281 69.3865 101.899 65.8298 100.475 62.9216C99.9623 61.8739 99.261 60.8787 98.4473 59.9403C98.4173 60.0697 98.3794 60.1971 98.3339 60.3218C98.0214 61.1778 97.248 61.4634 96.7179 61.547C96.1858 61.6305 95.6104 61.5717 95.1381 61.4923C94.6462 61.4098 94.1594 61.2881 93.7778 61.1881C93.612 61.1451 93.4463 61.1014 93.2808 61.0571C93.2099 61.039 93.1388 61.0222 93.0673 61.0066L93.0539 61.0045C92.4561 60.9183 91.8546 60.8605 91.2513 60.8313C91.8845 63.0516 92.2619 65.3275 92.4197 67.5148ZM96.0621 54.5654C96.006 54.2263 95.9351 53.8898 95.8496 53.5569C94.5028 48.3367 91.3905 44.6953 86.2322 43.1C85.5619 42.8937 84.8761 42.7298 84.181 42.605C84.3904 43.0608 84.5647 43.5331 84.7049 44.0157C85.0927 45.3419 85.2309 46.7609 85.1288 48.1737C85.2896 48.5646 85.4371 48.9606 85.5722 49.3638C89.4579 50.3321 93.1488 52.2771 95.9909 54.5097L96.0621 54.5654ZM75.733 40.2393C75.436 40.0248 75.1349 39.8165 74.8297 39.6123C73.8118 39.7164 72.8806 40.0454 72.2247 40.6466C72.0525 40.8054 71.8865 40.9766 71.7277 41.1623C73.0332 40.693 74.3955 40.4125 75.733 40.2393ZM72.0927 43.498C73.9593 42.7483 76.0981 42.4596 78.2637 42.3358C80.1097 44.0869 81.6308 46.104 82.6734 48.3501C82.3222 48.1282 81.9627 47.9197 81.5957 47.7251C80.914 47.3642 80.2115 47.044 79.492 46.7661C78.0067 45.817 76.4386 45.0042 74.807 44.3375C73.9265 43.9835 73.0194 43.7027 72.0927 43.498ZM86.9324 52.1781C89.6863 53.1324 92.2636 54.5348 94.5606 56.3288C95.1339 56.7795 95.7063 57.2528 96.2621 57.7468L96.2611 57.8015C96.258 57.9923 96.2601 58.1397 96.2611 58.2789C96.2642 58.4543 96.2652 58.6162 96.258 58.8327C96.2518 59.008 96.2384 59.1524 96.2209 59.271C95.9853 59.2721 95.7502 59.251 95.5186 59.2081C95.0737 59.129 94.6331 59.0271 94.1986 58.9028C93.9307 58.8257 93.6592 58.7621 93.3849 58.7121C92.4216 58.5739 91.45 58.5002 90.4768 58.4914C89.6106 56.2134 88.4453 54.0539 86.9324 52.1781ZM88.4154 60.8715L88.8423 60.8447C89.4177 62.6906 89.7993 64.6129 90.0066 66.5217C89.295 66.2572 88.5759 66.0134 87.8502 65.7906C87.4377 65.6648 87.0242 65.5462 86.6096 65.4379C87.1479 64.286 87.8152 62.8288 88.2803 61.3304C88.3267 61.1798 88.372 61.0272 88.4143 60.8725L88.4154 60.8715ZM71.0481 48.4862C71.0924 48.1644 71.1223 47.8406 71.1368 47.5168L71.2017 47.5189C71.3801 47.7519 71.5555 47.9871 71.7277 48.2232C72.267 48.9637 72.7589 49.7103 73.2003 50.4672C72.9672 50.593 72.7404 50.725 72.5186 50.8632C72.0917 50.0335 71.5999 49.2387 71.0481 48.4862ZM84.4254 64.6428C84.2262 64.2621 83.9991 63.8967 83.7459 63.5497C84.3451 62.8171 84.856 62.0165 85.268 61.1644C85.4835 61.1407 85.7011 61.119 85.9218 61.0974C85.4907 62.3617 84.9215 63.5785 84.4265 64.6418L84.4254 64.6428ZM85.532 67.753L85.6165 67.5746C86.1353 67.7025 86.6529 67.8469 87.1706 68.0057C88.1503 68.3048 89.1651 68.6616 90.1798 69.073L90.186 69.3515C90.2603 73.2218 88.9011 77.3323 86.4818 80.4869C86.4004 80.3876 86.3179 80.2893 86.2343 80.192C86.2322 80.0424 86.2291 79.8929 86.224 79.7424L86.2374 79.5588C86.4745 75.8257 86.4869 71.614 85.533 67.753H85.532ZM80.6418 74.5335C81.24 74.0895 81.7897 73.5834 82.2815 73.0238L82.3454 73.1609C83.0364 74.6418 83.5062 76.2161 83.7397 77.8335C82.9651 77.2392 82.1365 76.7189 81.2647 76.2794C80.9465 76.1201 80.6225 75.9728 80.2932 75.838L80.2974 75.8267C80.4366 75.3946 80.551 74.9635 80.6418 74.5335ZM67.9182 92.0854L68.0554 92.1875V92.1339C68.0123 92.1155 67.9693 92.097 67.9265 92.0782L67.9182 92.0854ZM72.1598 94.3335C71.572 94.1393 70.9977 93.9064 70.4407 93.6364C70.4139 93.3796 70.3943 93.1208 70.3829 92.8629C71.2817 93.0491 72.1951 93.156 73.1126 93.1826C72.8074 93.5714 72.4898 93.9571 72.1598 94.3335ZM72.9095 96.9333C73.2828 97.0137 73.6582 97.0777 74.0346 97.1251C74.578 97.1932 75.1287 97.2241 75.6784 97.2107C74.5851 97.8651 73.4002 98.3524 72.1629 98.6565L72.1474 98.6328C72.0205 98.4307 71.8999 98.2265 71.7864 98.0202C72.1732 97.6696 72.5465 97.3056 72.9095 96.9333ZM74.7296 94.8708C75.2112 94.2696 75.6619 93.6601 76.0806 93.0527C77.5991 92.8704 79.1028 92.5799 80.5799 92.1833C80.2947 92.5794 79.9782 92.9518 79.6332 93.2971C78.3421 94.581 76.6209 95.0255 74.7296 94.8708ZM85.0091 88.1264C85.7692 87.7758 86.5168 87.3953 87.248 86.9859C87.0718 86.2368 86.8196 85.5077 86.4952 84.8099C86.4028 84.6104 86.3051 84.4134 86.2023 84.219C86.0858 84.3263 85.9672 84.4314 85.8475 84.5346C85.6427 85.7484 85.3627 86.9473 85.0091 88.1264ZM82.134 89.2855C80.6788 89.7916 79.1875 90.1874 77.6728 90.4694C78.0647 89.7506 78.4607 88.9329 78.767 88.0707C79.757 87.8304 80.7295 87.5242 81.6679 87.1364C82.1113 86.9529 82.5414 86.7487 82.9611 86.5249C82.7417 87.461 82.4655 88.383 82.134 89.2855ZM79.3166 85.5215C79.393 84.1004 79.033 82.6206 77.7698 81.4274C77.5334 81.2022 77.2777 80.9983 77.0056 80.8179C77.9691 80.0256 78.7727 79.0568 79.3734 77.9634C79.66 78.08 79.9447 78.2078 80.2241 78.3481C81.5533 79.0238 82.7639 79.9109 83.8088 80.9747C83.7366 81.7904 83.6479 82.6092 83.5345 83.4229C82.6856 84.0598 81.7607 84.5885 80.781 84.9966C80.3046 85.1946 79.8158 85.3678 79.3166 85.5215ZM76.919 86.0918C75.3267 86.3743 73.6716 86.495 72.0133 86.5197C72.4702 85.5534 72.8507 84.5418 73.1529 83.4982C73.3278 83.2988 73.5196 83.1148 73.7262 82.9485C74.1655 82.5999 74.5492 82.4607 74.8771 82.4597C75.1844 82.4597 75.6186 82.5793 76.1785 83.1094C76.9623 83.8498 77.1551 84.8439 76.919 86.0918ZM70.7655 88.8369C72.4939 88.8576 74.281 88.7926 76.0496 88.5657C75.7797 89.1183 75.4858 89.6588 75.1689 90.1858C75.039 90.4044 74.9039 90.6251 74.7637 90.8458C73.2993 90.9345 71.8359 90.8458 70.4768 90.5076C70.5438 89.9507 70.6407 89.3938 70.7655 88.8369ZM67.9151 88.7338C67.7842 88.8957 67.6491 89.0535 67.5119 89.2082L67.4665 89.1773C67.229 89.0118 67.0008 88.8335 66.7828 88.6431C67.1675 88.6823 67.5459 88.7122 67.9151 88.7338ZM69.232 85.8391C68.537 85.6452 67.8347 85.4575 67.1283 85.2688C67.2139 84.9233 67.2778 84.5727 67.3222 84.22C68.2982 84.109 69.2645 83.9245 70.2128 83.6683C69.8171 84.3588 69.4887 85.0858 69.232 85.8391ZM82.2774 61.6635C82.2184 61.7445 82.1582 61.8246 82.0969 61.9038C82.0317 61.857 81.9657 61.8112 81.8989 61.7666C82.0237 61.7305 82.1495 61.6965 82.2774 61.6635ZM83.6386 59.0338C82.2021 59.2535 80.747 59.6031 79.3692 60.2517C79.0908 59.7773 78.7928 59.3236 78.4793 58.8894C80.6418 57.3426 82.4805 55.41 83.6644 53.2279L83.7551 53.0588C83.8737 53.1701 83.9903 53.2856 84.1078 53.4011C84.1687 53.9271 84.2037 54.4623 84.214 55.0058C84.2388 56.4423 84.0583 57.787 83.6386 59.0338ZM86.1301 58.7471C86.2848 58.1181 86.392 57.4766 86.456 56.8218C86.5839 57.3869 86.5931 58.0232 86.5065 58.7141L86.1301 58.7471ZM77.8904 56.434C77.581 54.7459 77.0757 53.1526 76.3951 51.6233C76.6364 51.548 76.8849 51.4789 77.1376 51.417C78.5298 51.0736 79.9942 50.9684 81.4781 51.0561C81.64 51.1891 81.8009 51.3221 81.9597 51.4572C81.8583 51.6838 81.7482 51.9063 81.6297 52.1244C80.7728 53.7033 79.4713 55.1749 77.8904 56.434ZM74.2645 52.5328C74.6997 53.5043 75.0524 54.4994 75.3205 55.5296C74.8823 55.1646 74.4295 54.8181 73.9634 54.4901C73.817 53.9929 73.6529 53.501 73.4715 53.0154C73.7273 52.8453 73.9902 52.6834 74.2645 52.5328ZM74.7338 58.1067C74.8152 58.1841 74.8957 58.2635 74.9751 58.3429L74.7781 58.446L74.7338 58.1067ZM71.9576 55.9277C72.0814 56.4196 72.1897 56.9177 72.2804 57.4209C71.992 57.0708 71.6382 56.7801 71.2389 56.565C70.9455 56.4059 70.6365 56.2774 70.3169 56.1814C70.517 55.8823 70.7304 55.5936 70.9563 55.3151C71.2966 55.5121 71.6318 55.7173 71.9576 55.9277ZM70.6376 52.276L70.4685 52.4307C70.2681 52.3317 70.0666 52.2348 69.8642 52.1399C69.9804 51.908 70.0922 51.6739 70.1994 51.4376C70.354 51.7119 70.4984 51.9914 70.6376 52.276ZM75.335 49.5329C75.7461 49.3929 76.1631 49.2711 76.5849 49.1678C77.1881 49.0204 77.7976 48.91 78.4133 48.8348C77.063 48.3404 75.6656 47.9862 74.2429 47.7777C74.6289 48.3488 74.9932 48.9343 75.335 49.5329ZM63.9912 54.3922C64.1437 53.8972 64.3105 53.4068 64.4914 52.9216C64.478 53.2763 64.3604 53.6878 64.1222 54.1519C64.0809 54.2323 64.0376 54.3117 63.9912 54.3922ZM62.4196 51.8522C62.3002 52.1686 62.1851 52.4866 62.0741 52.8061C61.9452 52.6081 61.8112 52.4142 61.6689 52.2245C61.7173 52.0399 61.7627 51.8553 61.806 51.6707C62.0112 51.7305 62.2154 51.7903 62.4196 51.8522ZM63.8149 48.6945C63.7191 48.6384 63.6225 48.5837 63.5251 48.5305C63.6726 48.4821 63.8231 48.4357 63.9747 48.3913L63.8149 48.6945ZM65.6887 50.1176C66.0032 49.4844 66.3456 48.8688 66.7179 48.2799C66.6405 49.1194 66.6147 49.9629 66.6281 50.8024C66.4504 50.7375 66.2724 50.6735 66.094 50.6106C65.9707 50.4372 65.8353 50.2717 65.6887 50.1176ZM65.9877 40.5115C65.3262 39.8247 64.608 39.1947 63.8407 38.6285C61.1213 36.5959 57.8687 34.7685 54.6914 34.6272C51.8967 34.5014 49.0804 35.4388 46.6435 37.0218C47.4995 36.9475 48.3637 36.9754 49.2134 37.0816C52.071 37.4374 54.8894 38.6893 57.0138 40.1619C57.5016 40.5002 57.9925 40.8611 58.4679 41.2489L58.5617 41.2695C60.4943 40.3579 62.6341 39.9041 64.8936 40.263C65.263 40.3216 65.6293 40.4046 65.9877 40.5115ZM48.4616 39.3308C46.395 39.1596 44.4789 39.5927 42.9805 40.8818C44.3628 40.647 45.7572 40.49 47.1571 40.4115C47.3543 40.2273 47.5561 40.0481 47.7624 39.8742C47.9821 39.6886 48.2162 39.504 48.4616 39.3308ZM37.5902 44.9201C36.6868 47.1023 36.1083 49.4339 35.7504 51.5438C35.5381 51.7263 35.3297 51.9133 35.1255 52.1048C34.964 51.8107 34.8127 51.5111 34.6718 51.2066C34.1674 50.1295 33.8148 48.9877 33.624 47.8138C34.1118 47.2714 34.6377 46.7795 35.2059 46.3536C35.9381 45.8029 36.7394 45.3285 37.5902 44.9201ZM40.7242 43.7579C42.0247 43.3986 43.3495 43.1339 44.6883 42.9659C44.5929 43.2035 44.579 43.4661 44.6489 43.7125C44.7187 43.9588 44.8683 44.175 45.0742 44.3273C45.2801 44.4795 45.5306 44.5592 45.7866 44.5537C46.0426 44.5483 46.2896 44.4581 46.4889 44.2973C46.8271 44.025 47.2386 43.6043 47.6335 43.2L47.7779 43.0515C47.8975 42.9288 48.0192 42.805 48.1419 42.6823C49.9096 42.6152 51.6797 42.661 53.4415 42.8195C53.6756 43.1505 53.8912 43.4795 54.0799 43.7785C54.1665 43.9147 54.249 44.0539 54.3274 44.1931C53.5002 44.9587 52.7279 45.7816 52.0164 46.6557C48.1492 46.6763 44.0964 47.1157 40.4839 48.6099C39.8566 48.8696 39.2456 49.1671 38.6544 49.5009C38.9638 48.1263 39.3557 46.7846 39.8569 45.5038C40.1188 44.8974 40.4086 44.3117 40.7242 43.7579ZM55.3133 46.7269C55.228 46.723 55.1428 46.7192 55.0575 46.7155L55.2596 46.5093L55.3133 46.7269ZM57.7119 46.8929C57.5894 46.1913 57.4055 45.5019 57.1623 44.8325L57.22 44.7892C57.5356 44.552 57.8543 44.3292 58.1791 44.123C58.8381 44.8232 59.3454 45.5708 59.6507 46.4041C59.4504 46.6202 59.2608 46.846 59.0825 47.0806C58.6225 47.0033 58.1647 46.9414 57.7119 46.8929ZM61.8658 44.6499C61.7462 44.719 61.6286 44.7902 61.5111 44.8644C61.4406 44.721 61.366 44.5797 61.2873 44.4406C61.4822 44.5087 61.675 44.5778 61.8658 44.6499ZM66.4652 43.1845C65.9504 43.2456 65.4395 43.3354 64.9348 43.4537C64.2011 43.094 63.4501 42.7705 62.6846 42.4843C63.3003 42.4311 63.9202 42.4529 64.5306 42.5493C65.2042 42.6605 65.8567 42.8748 66.4652 43.1845ZM45.4349 49.5546C44.0434 49.8159 42.6815 50.2159 41.3697 50.7488C40.1972 51.2334 39.101 51.8728 38.0883 52.6359L38.0161 53.1691C40.3091 51.6255 42.8061 50.4089 45.4349 49.5546ZM54.5697 53.3537C54.777 52.969 54.9987 52.5937 55.2349 52.2296C55.3411 51.7676 55.4257 51.3067 55.4855 50.8457C54.3913 50.5899 53.2188 50.5198 52.038 50.5858C51.9328 50.7529 51.8307 50.9199 51.7317 51.0849C51.2656 51.8687 50.783 52.7783 50.4757 53.6837C51.4584 53.4568 52.4969 53.3413 53.5797 53.3372C53.9118 53.3372 54.2418 53.3413 54.5697 53.3537ZM47.8903 54.6077C47.3933 54.8573 46.9168 55.1429 46.4641 55.4657C45.1029 56.4351 43.987 57.7148 43.1476 59.2679C42.7581 59.1154 42.3758 58.945 42.0019 58.7574C40.5646 58.028 39.2455 57.0858 38.0893 55.9628C41.351 53.4901 45.1283 51.7851 49.1402 50.9746C48.6792 51.8563 48.2317 52.8876 48.0027 53.9446C47.9563 54.1612 47.9182 54.3829 47.8903 54.6077ZM48.1595 57.1136C48.3974 57.7164 48.7666 58.2585 49.2402 58.7007C49.6012 59.0421 49.9827 59.3133 50.3808 59.5051C50.1137 59.7629 49.8569 60.0383 49.6104 60.328C48.1873 60.3538 46.7848 60.2414 45.4236 59.9496C46.1054 58.8065 47.0416 57.836 48.1595 57.1136ZM54.8214 67.2302C55.0132 67.1095 55.2029 66.9878 55.3937 66.8641C55.9521 67.3627 56.4145 67.9593 56.758 68.6244C56.2857 68.939 55.7866 69.2246 55.2638 69.4773C55.0727 68.7371 54.925 67.9875 54.8214 67.2302ZM53.5694 75.4111L53.4395 75.4575C52.5413 75.7772 51.6018 76.0711 50.6479 76.3083C50.6871 75.2492 50.7778 74.1942 50.916 73.1589C51.9031 73.0102 52.8784 72.7913 53.8344 72.504C53.9685 72.834 54.115 73.1599 54.2707 73.4816C53.9712 74.0986 53.7362 74.7459 53.5694 75.4111ZM57.6779 73.6528L57.647 73.6683C57.5625 73.3821 57.4658 73.0996 57.3572 72.8216L57.4129 72.7443C57.4913 72.637 57.5717 72.5308 57.6542 72.4246C57.6789 72.8371 57.6872 73.2465 57.6779 73.6528ZM53.8066 79.2319C53.3329 78.973 52.867 78.7003 52.4093 78.4141C52.7228 78.2615 53.0404 78.1192 53.3601 77.9872C53.4178 78.4667 53.5766 78.8802 53.8066 79.2319ZM61.9494 74.9594C61.5455 74.8272 61.1317 74.7279 60.7119 74.6624C61.1316 74.4232 61.5482 74.1777 61.9597 73.9251C62.0009 74.1684 62.037 74.4118 62.07 74.6542C62.0288 74.7552 61.9875 74.8573 61.9494 74.9594ZM60.7428 69.3205C61.0192 70.0249 61.2512 70.7591 61.4482 71.513C60.9624 71.8254 60.4685 72.1276 59.9683 72.4184C59.9305 71.6786 59.8444 70.9421 59.7105 70.2136C60.0529 69.8991 60.3984 69.601 60.7428 69.3205ZM59.2165 66.4433C59.0144 66.6826 58.802 66.9136 58.5782 67.1374C58.2305 66.5486 57.8125 66.0042 57.3335 65.5163C57.5602 65.3492 57.7854 65.1801 58.0089 65.0089C58.4565 65.4554 58.8577 65.936 59.2165 66.4433ZM74.1408 77.0023C74.7967 77.0054 75.4464 77.0436 76.0868 77.124C75.4833 77.9606 74.7615 78.7051 73.9438 79.334C74.0335 78.5667 74.1006 77.7871 74.1408 77.0023ZM71.8153 77.1281C71.743 78.3164 71.6116 79.5004 71.4214 80.6756C71.0501 80.7169 70.6665 80.7396 70.2695 80.7406C69.1844 80.7468 68.101 80.655 67.0324 80.4663C67.0011 80.3571 66.9677 80.2484 66.9324 80.1404C67.2964 79.3515 67.6914 78.5698 68.1028 77.8005C69.3236 77.4921 70.564 77.2674 71.8153 77.1281ZM67.4903 71.8337C67.1881 72.0483 66.889 72.2673 66.5931 72.4906L66.459 72.5906C66.3636 72.4927 66.2704 72.3926 66.1795 72.2905C66.4796 71.9296 66.8004 71.5862 67.1407 71.2583C67.251 71.4542 67.3675 71.647 67.4903 71.8337ZM70.9604 68.6317C70.5768 69.1885 70.2055 69.7454 69.8477 70.3023C69.7054 70.3848 69.5631 70.4714 69.4218 70.557C69.2564 70.3039 69.1062 70.0412 68.9722 69.7702C69.5961 69.3453 70.2612 68.9648 70.9604 68.6317ZM82.2877 68.9947C82.0035 68.725 81.6941 68.4833 81.3637 68.2728C81.3843 67.8087 81.3843 67.3447 81.3657 66.8827C81.8889 66.9223 82.4106 66.9787 82.9301 67.0518C82.9807 67.2055 83.0281 67.3602 83.0725 67.5159C82.8219 68.0181 82.562 68.5141 82.2877 68.9947ZM78.4184 63.6012C78.5257 63.9013 78.6185 64.2076 78.6979 64.518C78.5937 64.5218 78.4895 64.5263 78.3854 64.5314C78.2916 64.4035 78.1953 64.2773 78.0967 64.1529C78.107 64.0519 78.1173 63.9498 78.1255 63.8487L78.4184 63.6012ZM72.2753 63.3197L72.6496 63.2207C72.6152 63.9861 72.5502 64.7499 72.4547 65.5101C72.2794 65.0738 72.0865 64.6438 71.8793 64.221C72.0236 63.9261 72.1556 63.6249 72.2753 63.3197ZM67.9646 64.9037C68.1668 64.8119 68.3699 64.7232 68.5741 64.6356C68.6195 64.7593 68.6669 64.8831 68.7164 65.0068C68.4971 65.3168 68.2662 65.6184 68.0244 65.9112C67.9947 65.576 67.9748 65.24 67.9646 64.9037ZM65.7124 66.0216C65.767 66.6898 65.8557 67.355 65.9785 68.015L65.9867 68.0593C65.4742 68.5343 64.943 68.9887 64.3944 69.4216C64.0934 68.7129 63.8442 67.9832 63.6489 67.2384C64.3222 66.8088 65.0105 66.4029 65.7124 66.0216ZM64.0129 60.1455C64.0168 60.0493 64.0192 59.953 64.0201 59.8568C64.2614 59.6165 64.5007 59.3741 64.7368 59.1297C65.2112 59.4865 65.6691 59.8702 66.1094 60.2827L66.0609 60.5013C65.7299 60.4807 65.402 60.4466 65.0813 60.3992C64.7184 60.346 64.3609 60.2611 64.0129 60.1455ZM63.7138 62.4761C64.0449 62.5658 64.3872 62.637 64.741 62.6896C65.0648 62.7381 65.3906 62.7742 65.7186 62.7989C65.701 63.0083 65.6866 63.2186 65.6753 63.429C64.8135 63.8616 63.9689 64.3278 63.1435 64.8263C63.1248 64.7076 63.1076 64.5887 63.092 64.4695C63.3498 63.8312 63.5602 63.166 63.7138 62.4761ZM60.616 62.9381C60.6386 63.33 60.6716 63.7239 60.715 64.1168C60.6696 64.2128 60.6221 64.3076 60.5747 64.4025C60.3447 64.1179 60.1003 63.8415 59.8425 63.5723C60.1003 63.3651 60.3581 63.1537 60.616 62.9381ZM56.5786 58.6945C56.46 58.9224 56.3394 59.1503 56.2177 59.3772L56.2053 59.3855C55.7821 59.4944 55.3564 59.5934 54.9286 59.6825C54.9514 59.5307 54.9755 59.3791 55.0008 59.2277C55.5138 59.0138 56.041 58.8356 56.5786 58.6945ZM56.4765 55.8349C56.8117 55.8792 57.1437 55.9318 57.4717 55.9927L57.5129 56.136C57.0705 56.2085 56.6312 56.2986 56.196 56.4062C56.2981 56.2133 56.3919 56.0215 56.4765 55.8349ZM53.5478 55.6534C53.4215 56.0041 53.3063 56.3587 53.2023 56.7166C53.0548 56.8806 52.9032 57.026 52.7485 57.1497C52.3866 57.4364 52.0875 57.5375 51.8493 57.5375C51.6327 57.5375 51.2945 57.455 50.8314 57.0177C50.5717 56.7776 50.3787 56.4741 50.2715 56.137C51.2615 55.8266 52.3577 55.6616 53.5478 55.6534ZM48.0945 62.6195C46.8603 62.5628 45.6344 62.3881 44.4336 62.0977L44.3748 62.2781C43.8039 64.0151 43.6503 65.8621 43.9262 67.6695C44.2284 67.1817 44.5532 66.7074 44.9059 66.2619C45.6123 65.3688 46.4548 64.5593 47.4675 63.9725C47.6624 63.5043 47.8728 63.0526 48.0945 62.6195ZM40.4375 69.7929C39.3103 68.9472 38.4317 67.7365 37.6964 66.3093C37.7892 67.1817 37.913 68.0438 38.0749 68.8895C38.8638 69.2298 39.6589 69.5299 40.4375 69.7929ZM38.7699 71.6594C39.168 72.9072 39.729 73.9674 40.5014 74.7965C40.8159 73.9746 41.1686 73.197 41.479 72.5298C41.1779 72.4482 40.8781 72.3616 40.5798 72.2699C39.9709 72.083 39.3674 71.8801 38.7699 71.6594ZM42.6268 76.2557C42.5704 76.2325 42.5144 76.2084 42.4587 76.1835C42.799 75.1956 43.2353 74.2417 43.6344 73.3868C43.7612 73.593 43.8922 73.7951 44.0293 73.9952C43.4518 74.7109 42.9878 75.4668 42.6268 76.2557ZM35.5246 67.6272C35.1069 64.5644 35.0977 61.4191 35.242 58.4697C33.6013 60.1507 32.2102 62.0513 31.1604 64.1303C32.2772 65.4925 33.821 66.6599 35.5246 67.6272ZM61.6132 91.2759C62.219 91.0625 62.8015 90.7882 63.3519 90.457C63.62 90.9727 63.9479 91.4491 64.315 91.8905C63.1385 92.6044 61.8633 93.1413 60.5304 93.4838L60.5025 93.491C60.9039 92.7686 61.2744 92.0296 61.6132 91.2759ZM58.7401 91.8853C58.6506 92.055 58.5588 92.2234 58.4648 92.3906C58.3666 92.2376 58.2734 92.0814 58.1853 91.9224C58.3709 91.9142 58.5555 91.9018 58.7401 91.8853ZM60.8789 86.7641C60.5891 87.6415 60.2682 88.5083 59.9168 89.3629C59.5143 89.4566 59.106 89.5238 58.6947 89.564C58.7329 89.401 58.769 89.2402 58.8009 89.0834C59.0588 87.8408 59.1516 86.5754 59.1454 85.3173L59.3516 85.3905C59.5331 85.6411 59.7518 85.8783 60.0075 86.1C60.287 86.3434 60.5778 86.5641 60.8789 86.7641ZM39.7414 80.4292C39.7971 80.6602 39.8682 80.8891 39.9559 81.1139C40.3457 82.106 41.0861 83.0506 41.8204 83.8395L41.8266 83.8746C39.7581 83.1973 37.7979 82.2259 36.0062 80.9902C37.2334 80.8695 38.4936 80.7097 39.7414 80.4292ZM44.1386 79.0483C44.2706 79.0689 44.4026 79.0875 44.5357 79.105C44.5408 79.6516 44.5584 80.1899 44.5872 80.7189C44.6089 81.1407 44.6419 81.5574 44.6842 81.9688C44.4841 82.2679 44.2985 82.5742 44.1273 82.8866C44.089 82.849 44.0508 82.8112 44.0128 82.7732C43.9644 82.3401 43.9355 81.9008 43.9283 81.4532C43.9128 80.6127 43.9798 79.8114 44.1386 79.0483ZM46.856 79.4299C46.8543 79.3543 46.853 79.2786 46.8519 79.203L47.1169 79.1917C47.0289 79.2703 46.942 79.3491 46.856 79.4299ZM47.0921 82.5876C47.5067 82.0565 47.979 81.546 48.4988 81.0644C48.6256 82.2473 48.8205 83.4208 49.0876 84.5717C48.5651 84.6604 48.0373 84.7148 47.5077 84.7346C47.3333 84.0264 47.1946 83.3098 47.0921 82.5876ZM51.3172 83.9354C51.07 82.8392 50.8902 81.7289 50.7789 80.6107C51.6258 81.377 52.5405 82.0649 53.5117 82.6659C52.8399 83.1849 52.1019 83.6118 51.3172 83.9354ZM49.7105 86.8126C49.5486 86.8435 49.3867 86.8704 49.2237 86.8951C49.4372 87.0292 49.6527 87.1581 49.8703 87.2839C49.8155 87.1273 49.7622 86.9702 49.7105 86.8126ZM53.0002 88.7978C52.5893 87.9506 52.2355 87.0769 51.9411 86.1825C53.3264 85.6565 54.5994 84.8726 55.6928 83.8725C55.7876 83.9189 55.8815 83.9653 55.9774 84.0097C55.911 84.1449 55.8464 84.2811 55.7835 84.418C55.0743 85.9629 54.7943 87.6703 54.9729 89.3608C54.3015 89.2255 53.6419 89.0372 53.0002 88.7978ZM54.7389 91.6739C54.9781 91.7183 55.2184 91.7574 55.4607 91.7915C55.3801 91.9541 55.2942 92.1141 55.2029 92.271C55.0439 92.075 54.8892 91.8756 54.7389 91.6729V91.6739ZM45.8907 87.42C45.6948 87.2736 45.5009 87.1261 45.3091 86.9766C45.2699 86.9723 45.2307 86.9678 45.1915 86.9632L45.1843 87.0178C45.6593 88.0615 46.2465 89.0505 46.9354 89.9672C46.541 89.1378 46.1923 88.2875 45.8907 87.42ZM47.5861 96.2083C45.1214 95.7463 42.7403 94.9615 40.5829 93.8179C35.5762 91.1645 32.2989 86.5238 30.3591 81.3583C29.201 81.3537 28.0446 81.2693 26.8982 81.1057C26.59 81.0483 26.2847 80.976 25.9835 80.8891L25.7844 80.8375C25.3544 80.7241 24.8842 80.6076 24.4356 80.5323C23.9921 80.4591 23.657 80.4415 23.4425 80.4683C23.4054 80.6395 23.3806 80.8602 23.3713 81.1366C23.362 81.3872 23.3651 81.5821 23.3672 81.7914C23.3693 81.9534 23.3713 82.1214 23.3672 82.3318C23.3424 84.0715 23.4363 85.6834 23.8498 87.2849C25.4184 93.3693 29.0576 97.6283 35.0863 99.4929C37.7779 100.324 40.6551 100.544 43.5446 100.421C46.8323 100.284 50.1519 99.8816 52.8414 98.4204C52.4667 98.0404 52.1045 97.6483 51.7554 97.2447C51.6054 97.1543 51.4562 97.0626 51.3079 96.9694C50.5426 96.972 49.7798 96.8823 49.036 96.7023C48.5204 96.5765 48.0357 96.4115 47.5861 96.2083ZM65.2277 36.7743C64.0968 35.9204 62.9076 35.1464 61.6689 34.4581C64.5481 35.0335 67.1355 35.8028 70.156 37.0981C70.8022 37.3745 71.4385 37.6734 72.0639 37.9942C71.5518 38.2393 71.0786 38.5582 70.6593 38.9409C70.0829 39.4789 69.577 40.0877 69.1537 40.7528C68.0884 39.1833 66.7024 37.8767 65.2277 36.7743ZM50.8675 65.3337L50.8026 65.3368C50.4978 65.3516 50.195 65.3948 49.8982 65.4657C49.5079 66.1814 49.1591 66.919 48.8535 67.6747C49.2289 67.5303 49.6022 67.3746 49.9714 67.2106C50.2313 66.5661 50.5303 65.9391 50.8675 65.3337ZM49.0979 70.0981C49.0959 70.1002 49.0948 70.1012 49.0928 70.1012C48.8535 70.2095 48.6184 70.327 48.3853 70.4508L48.3884 70.2961C48.6297 70.2177 48.87 70.1352 49.1093 70.0496L49.0989 70.0991L49.0979 70.0981ZM51.9297 63.0423C52.0555 63.0526 52.1803 63.0639 52.3041 63.0794L52.3123 62.8329C52.1802 62.8932 52.0516 62.9632 51.9297 63.0423ZM57.78 61.349C58.439 61.1518 59.0878 60.9219 59.7239 60.6601C59.1712 61.1334 58.6133 61.5924 58.0564 62.0378C57.9007 61.9296 57.7398 61.8213 57.5748 61.7182L57.78 61.349ZM73.9191 71.1355C73.9737 71.0128 74.0274 70.8922 74.0779 70.7725L73.8799 70.855L73.9191 71.1355ZM76.096 73.8085C75.7733 73.825 75.4567 73.823 75.1452 73.8044C75.7165 72.8515 76.1476 71.844 76.4663 71.0623C76.6261 70.6725 76.7736 70.2734 76.9097 69.8661C77.4356 69.7506 77.9007 69.7021 78.3163 69.7114C78.4504 70.2724 78.538 70.8458 78.5721 71.4263C78.4071 72.0956 78.205 72.7567 77.9709 73.4002C77.3735 73.6412 76.7396 73.7793 76.096 73.8085ZM39.4691 64.6644C38.6004 62.8028 38.0317 60.8154 37.7841 58.776C38.7688 59.569 39.8345 60.2558 40.9634 60.8251C41.3811 61.0344 41.8029 61.2232 42.2288 61.3923L42.172 61.5645C41.517 63.5585 41.3207 65.6746 41.5976 67.7551C40.8283 67.0982 40.1333 66.0886 39.4691 64.6644ZM60.3024 76.9404C60.5943 76.9838 60.8748 77.0498 61.1439 77.1364C60.9635 77.3148 60.7851 77.4953 60.6077 77.6778C60.2756 77.4241 59.9539 77.1519 59.6414 76.8662C59.8642 76.8837 60.0849 76.9085 60.3024 76.9404ZM66.4105 75.5627C66.4765 75.6081 66.5446 75.6534 66.6127 75.6968L66.5364 75.8339C66.2796 75.9123 66.0228 75.9958 65.7681 76.0866C65.9815 75.9092 66.196 75.7349 66.4105 75.5627ZM55.6453 77.2354C55.7546 77.2086 55.864 77.1838 55.9743 77.158C56.0094 77.4396 56.0413 77.7139 56.0723 77.9799L56.1032 78.2481C56.0813 78.2376 56.0596 78.2266 56.0382 78.2151C55.768 78.0655 55.667 77.9119 55.6515 77.6355C55.6444 77.5023 55.6423 77.3688 55.6453 77.2354Z" fill="#4785C8"/>
<path fill-rule="evenodd" clip-rule="evenodd" d="M89.7077 27.3638C90.0114 27.3193 90.3203 27.3971 90.5667 27.5802C90.813 27.7633 90.9766 28.0368 91.0215 28.3404C91.1524 29.2376 91.4752 30.6257 91.8331 32.0756C91.9444 32.5263 92.0589 32.9831 92.1703 33.4266C92.4075 34.3763 92.6323 35.2694 92.7787 35.9273C92.8351 36.2229 92.7742 36.5288 92.6089 36.7802C92.4437 37.0317 92.187 37.2089 91.8934 37.2745C91.5997 37.34 91.2921 37.2887 91.0356 37.1314C90.7791 36.9741 90.5939 36.7231 90.5192 36.4316C90.334 35.6294 90.1391 34.8294 89.9345 34.0319C89.8211 33.5812 89.7035 33.1089 89.586 32.6304C89.2322 31.2001 88.8806 29.7017 88.73 28.6766C88.6855 28.3728 88.7634 28.0636 88.9468 27.8173C89.1301 27.5709 89.4038 27.4084 89.7077 27.3638ZM101.795 30.2967C102.28 30.7133 102.334 31.4445 101.919 31.9292L96.2159 38.557C96.1167 38.6723 95.9959 38.7669 95.8602 38.8354C95.7245 38.9039 95.5766 38.9451 95.425 38.9565C95.2735 38.9679 95.1211 38.9493 94.9767 38.9018C94.8323 38.8543 94.6986 38.7789 94.5834 38.6797C94.4682 38.5806 94.3736 38.4598 94.305 38.3241C94.2365 38.1884 94.1953 38.0405 94.1839 37.8889C94.1726 37.7373 94.1911 37.585 94.2386 37.4406C94.2861 37.2962 94.3616 37.1625 94.4607 37.0473L100.163 30.4194C100.363 30.1867 100.648 30.0429 100.954 30.0197C101.26 29.9965 101.562 30.0968 101.795 30.2967ZM98.7775 40.3421C98.6292 40.3756 98.489 40.438 98.3648 40.5258C98.2406 40.6135 98.1349 40.7248 98.0538 40.8533C97.9726 40.9819 97.9176 41.1252 97.8918 41.275C97.866 41.4248 97.87 41.5783 97.9035 41.7266C97.937 41.8749 97.9994 42.0151 98.0871 42.1393C98.1749 42.2635 98.2862 42.3691 98.4147 42.4503C98.5433 42.5315 98.6866 42.5865 98.8364 42.6123C98.9862 42.6381 99.1397 42.6341 99.288 42.6006C99.7335 42.4995 100.405 42.2572 101.107 41.9818C101.914 41.6637 102.717 41.3354 103.515 40.997C103.91 40.832 104.298 40.667 104.667 40.5102C105.899 39.9884 106.936 39.5501 107.387 39.3965C107.666 39.289 107.892 39.078 108.019 38.8076C108.146 38.5373 108.163 38.2284 108.068 37.9454C107.972 37.6625 107.771 37.4274 107.506 37.2893C107.242 37.1511 106.934 37.1206 106.647 37.204C106.105 37.3866 104.933 37.8826 103.676 38.4157L102.617 38.8633C101.788 39.2119 100.965 39.5542 100.266 39.8255C99.5417 40.108 99.0281 40.2864 98.7775 40.3421Z" fill="#FF8A56"/>
</svg>
