<svg width="133" height="132" viewBox="0 0 133 132" fill="none" xmlns="http://www.w3.org/2000/svg">
<path d="M66.4464 131.685C102.724 131.685 132.132 102.277 132.132 65.9999C132.132 29.7228 102.724 0.314453 66.4464 0.314453C30.1694 0.314453 0.760986 29.7228 0.760986 65.9999C0.760986 102.277 30.1694 131.685 66.4464 131.685Z" fill="white"/>
<path fill-rule="evenodd" clip-rule="evenodd" d="M80.7829 16.5444C80.7966 16.3909 80.8408 16.2417 80.9129 16.1055C80.985 15.9693 81.0835 15.8489 81.2028 15.7512C81.322 15.6536 81.4596 15.5808 81.6073 15.537C81.7551 15.4932 81.9101 15.4793 82.0633 15.4962C82.2164 15.5131 82.3647 15.5604 82.4994 15.6353C82.6341 15.7102 82.7524 15.8113 82.8475 15.9325C82.9427 16.0538 83.0126 16.1928 83.0533 16.3414C83.094 16.49 83.1047 16.6453 83.0846 16.7981L81.974 26.8744C81.9345 27.1748 81.7789 27.4478 81.5406 27.6348C81.3022 27.8219 81 27.908 80.6989 27.8748C80.3977 27.8416 80.1215 27.6917 79.9296 27.4573C79.7377 27.2229 79.6453 26.9225 79.6722 26.6208L80.7829 16.5444ZM92.8176 20.4436C93.3352 20.82 93.4497 21.5439 93.0733 22.0606L86.7187 30.7953C86.6294 30.9182 86.5166 31.0224 86.387 31.1018C86.2574 31.1812 86.1134 31.2343 85.9632 31.258C85.8131 31.2818 85.6597 31.2757 85.5119 31.2402C85.3641 31.2047 85.2247 31.1404 85.1018 31.051C84.9788 30.9616 84.8746 30.8489 84.7952 30.7193C84.7158 30.5896 84.6627 30.4456 84.639 30.2955C84.6152 30.1453 84.6213 29.992 84.6568 29.8442C84.6923 29.6963 84.7566 29.557 84.846 29.434L91.2006 20.6993C91.2899 20.5762 91.4027 20.4718 91.5324 20.3923C91.6621 20.3127 91.8062 20.2596 91.9565 20.2358C92.1068 20.2121 92.2603 20.2182 92.4083 20.2538C92.5562 20.2895 92.6946 20.354 92.8176 20.4436ZM101.137 29.5351C101.394 30.1208 101.128 30.8035 100.543 31.0613L91.4501 35.0543C91.3104 35.119 91.1591 35.1552 91.0052 35.1607C90.8513 35.1663 90.6978 35.1411 90.5538 35.0866C90.4097 35.0321 90.278 34.9494 90.1663 34.8434C90.0546 34.7374 89.9651 34.6101 89.9032 34.4691C89.8413 34.3281 89.8081 34.1761 89.8056 34.0222C89.8031 33.8682 89.8314 33.7152 89.8887 33.5723C89.946 33.4293 90.0313 33.2993 90.1395 33.1897C90.2477 33.0801 90.3767 32.9932 90.5189 32.9341L99.6114 28.9411C100.197 28.6833 100.879 28.9493 101.137 29.5351ZM67.7603 35.7989C67.1707 35.4758 66.5101 35.3045 65.8379 35.3003C65.1657 35.2962 64.503 35.4594 63.9096 35.7752L57.9015 38.972C57.5725 39.1457 57.2675 39.3613 56.994 39.6135C54.7696 41.1129 52.9488 43.1371 51.6924 45.5073C50.4361 47.8775 49.783 50.5207 49.7907 53.2033C49.7907 62.1968 56.9765 69.4867 65.839 69.4867C74.7026 69.4867 81.8873 62.1968 81.8873 53.2033C81.8873 46.5651 77.9727 40.8541 72.3586 38.3182L67.7603 35.7989Z" fill="#FF8A56"/>
<path fill-rule="evenodd" clip-rule="evenodd" d="M44.4273 62.9143C43.9591 61.6252 42.802 60.6538 41.4315 60.6538H26.2536C25.8735 60.6538 25.4971 60.7287 25.1459 60.8742C24.7948 61.0197 24.4758 61.2329 24.207 61.5017C23.9383 61.7705 23.7252 62.0896 23.5798 62.4408C23.4345 62.792 23.3597 63.1684 23.3599 63.5485V96.7548C23.3599 97.5222 23.6647 98.2583 24.2074 98.8009C24.7501 99.3436 25.4861 99.6485 26.2536 99.6485H107.314C108.081 99.6485 108.818 99.3436 109.36 98.801C109.903 98.2583 110.208 97.5223 110.209 96.7548V63.5485C110.209 62.7808 109.904 62.0445 109.361 61.5017C108.818 60.9588 108.082 60.6538 107.314 60.6538H89.0196C87.6501 60.6538 86.493 61.6263 86.0248 62.9143C83.2559 70.5456 74.9915 76.0834 65.2266 76.0834C55.4606 76.0834 47.1972 70.5456 44.4273 62.9143Z" fill="#4785C8"/>
<path fill-rule="evenodd" clip-rule="evenodd" d="M66.829 38.1232C66.5473 37.9402 66.2187 37.8428 65.8828 37.8428C65.5469 37.8428 65.2183 37.9402 64.9366 38.1232L60.988 40.6879C59.538 41.6294 60.2042 43.8806 61.9336 43.8806H69.833C71.5614 43.8806 72.2276 41.6294 70.7776 40.6879L66.829 38.1232ZM88.1243 87.85C88.6993 87.8287 89.2642 87.6932 89.7864 87.4515C90.3085 87.2099 90.7775 86.8669 91.1659 86.4424C91.5543 86.0179 91.8545 85.5205 92.0489 84.979C92.2434 84.4375 92.3283 83.8628 92.2987 83.2882C92.2692 82.7136 92.1256 82.1506 91.8766 81.632C91.6275 81.1133 91.2778 80.6493 90.8478 80.267C90.4179 79.8847 89.9162 79.5917 89.372 79.4049C88.8278 79.2182 88.2519 79.1415 87.6778 79.1793C86.5398 79.2545 85.4772 79.7745 84.7195 80.6268C83.9618 81.4791 83.5699 82.5953 83.6284 83.7342C83.6869 84.8731 84.1912 85.9432 85.0323 86.7134C85.8733 87.4835 86.9836 87.8918 88.1233 87.85H88.1243ZM104.196 79.1999C104.226 79.7694 104.142 80.339 103.951 80.8763C103.76 81.4136 103.465 81.908 103.083 82.3313C102.701 82.7546 102.24 83.0985 101.725 83.3434C101.21 83.5883 100.652 83.7294 100.082 83.7585C99.5127 83.7877 98.9431 83.7045 98.4058 83.5135C97.8685 83.3225 97.3741 83.0276 96.9508 82.6456C96.5275 82.2636 96.1835 81.8019 95.9387 81.2869C95.6938 80.772 95.5527 80.2138 95.5235 79.6444C95.4646 78.4943 95.8649 77.3679 96.6365 76.513C97.408 75.6581 98.4876 75.1447 99.6377 75.0857C100.788 75.0268 101.914 75.4271 102.769 76.1987C103.624 76.9703 104.137 78.0498 104.196 79.1999ZM97.0921 93.1857C97.9353 93.1425 98.7268 92.7661 99.2925 92.1393C99.8581 91.5125 100.152 90.6867 100.108 89.8434C100.065 89.0002 99.6888 88.2087 99.062 87.643C98.4352 87.0773 97.6094 86.7838 96.7662 86.827C96.3487 86.8484 95.9394 86.9519 95.5619 87.1314C95.1844 87.3109 94.8459 87.5631 94.5658 87.8735C94.2857 88.1838 94.0694 88.5463 93.9294 88.9402C93.7894 89.3342 93.7284 89.7518 93.7498 90.1693C93.7712 90.5868 93.8746 90.9961 94.0541 91.3736C94.2337 91.7511 94.4858 92.0896 94.7962 92.3697C95.1066 92.6498 95.469 92.8661 95.863 93.0061C96.2569 93.1461 96.6745 93.2071 97.0921 93.1857Z" fill="#FDFAEE"/>
<path fill-rule="evenodd" clip-rule="evenodd" d="M55.1841 35.2407C56.0472 34.7292 56.929 34.0888 57.7932 33.4484L58.216 33.1339C58.9523 32.5873 59.6803 32.0439 60.4259 31.5417C62.2275 30.3279 63.9013 29.5091 65.5048 29.5091C65.5873 29.5091 65.6698 29.4998 65.7472 29.4833C65.8256 29.4998 65.906 29.5091 65.9895 29.5091C67.5931 29.5091 69.2668 30.3279 71.0684 31.5417C71.814 32.0439 72.5431 32.5863 73.2774 33.1339L73.7012 33.4484C74.5654 34.0888 75.4471 34.7292 76.3103 35.2407C82.9412 39.1677 87.3343 45.8977 87.3343 53.5692C87.3297 53.7241 87.3562 53.8783 87.4123 54.0228C87.4684 54.1673 87.553 54.2991 87.6609 54.4103C87.7688 54.5215 87.898 54.6099 88.0408 54.6703C88.1835 54.7307 88.3369 54.7618 88.4919 54.7618C88.6469 54.7618 88.8003 54.7307 88.9431 54.6703C89.0858 54.6099 89.215 54.5215 89.3229 54.4103C89.4309 54.2991 89.5154 54.1673 89.5715 54.0228C89.6276 53.8783 89.6541 53.7241 89.6495 53.5692C89.6495 44.9634 84.7181 37.5301 77.4911 33.2484C76.7424 32.8049 75.9473 32.2316 75.08 31.5881L74.6706 31.2838C73.9142 30.7123 73.1447 30.1583 72.3627 29.6225C70.4992 28.3664 68.3294 27.1929 65.9895 27.1929C65.907 27.1929 65.8245 27.2022 65.7472 27.2187C65.6675 27.202 65.5863 27.1937 65.5048 27.1939C63.1649 27.1939 60.9952 28.3664 59.1317 29.6215C58.3377 30.1577 57.5591 30.7373 56.8238 31.2838L56.4144 31.5881C55.5471 32.2316 54.752 32.8049 54.0043 33.2484C46.7753 37.5301 41.8449 44.9634 41.8449 53.5692C41.8403 53.7241 41.8668 53.8783 41.9229 54.0228C41.979 54.1673 42.0635 54.2991 42.1714 54.4103C42.2794 54.5215 42.4086 54.6099 42.5513 54.6703C42.694 54.7307 42.8475 54.7618 43.0025 54.7618C43.1574 54.7618 43.3109 54.7307 43.4536 54.6703C43.5964 54.6099 43.7255 54.5215 43.8335 54.4103C43.9414 54.2991 44.0259 54.1673 44.082 54.0228C44.1381 53.8783 44.1647 53.7241 44.16 53.5692C44.16 45.8967 48.5532 39.1677 55.1841 35.2407Z" fill="#252D37"/>
</svg>
