<svg width="133" height="132" viewBox="0 0 133 132" fill="none" xmlns="http://www.w3.org/2000/svg">
<path d="M66.3337 131.685C102.611 131.685 132.019 102.277 132.019 65.9999C132.019 29.7228 102.611 0.314453 66.3337 0.314453C30.0566 0.314453 0.648193 29.7228 0.648193 65.9999C0.648193 102.277 30.0566 131.685 66.3337 131.685Z" fill="white"/>
<path d="M82.6892 32.9947C67.9629 32.9947 64.9166 44.587 64.865 44.7891C64.8125 44.5849 61.763 32.9937 47.0409 32.9937C39.1952 32.9937 29.2168 38.8924 29.2168 53.6362C29.2168 60.891 32.3982 66.3051 36.3469 70.5301C41.6939 70.0372 42.422 74.8665 44.9021 76.7403C55.953 87.6767 54.8846 81.679 54.8846 81.679C54.8846 81.679 50.21 76.6372 85.6602 77.2271C92.1024 72.3616 100.513 65.4316 100.513 53.6362C100.513 38.8914 90.538 32.9937 82.6892 32.9937V32.9947Z" fill="#4785C8"/>
<path d="M103.358 92.405C103.507 92.4359 103.661 92.437 103.811 92.4082C103.961 92.3794 104.103 92.3212 104.23 92.2371C104.358 92.153 104.467 92.0446 104.552 91.918C104.637 91.7915 104.697 91.6494 104.727 91.4999C104.757 91.3503 104.757 91.1963 104.727 91.0467C104.697 90.8971 104.639 90.7549 104.554 90.6282C104.469 90.5014 104.36 90.3927 104.233 90.3083C104.106 90.2239 103.963 90.1654 103.813 90.1362L103.358 92.405ZM71.9149 88.6337C72.0586 88.584 72.1911 88.5065 72.3048 88.4056C72.4185 88.3047 72.5113 88.1824 72.5777 88.0456C72.6442 87.9089 72.683 87.7604 72.6921 87.6086C72.7012 87.4568 72.6803 87.3048 72.6306 87.1611C72.5809 87.0174 72.5033 86.8849 72.4024 86.7712C72.3015 86.6575 72.1792 86.5647 72.0425 86.4983C71.9057 86.4318 71.7572 86.3929 71.6055 86.3839C71.4537 86.3748 71.3016 86.3957 71.1579 86.4454L71.9149 88.6337ZM98.0261 109C98.2942 109.149 98.6106 109.186 98.906 109.103C99.2013 109.019 99.4512 108.821 99.6008 108.553C99.7505 108.285 99.7875 107.969 99.7037 107.673C99.62 107.378 99.4224 107.128 99.1543 106.979L98.0261 109ZM34.4929 75.3873L33.3575 75.1604L33.3472 75.2161L33.341 75.2728L34.4929 75.3873ZM55.3138 87.8603C55.6131 87.8354 55.891 87.6951 56.0889 87.4692C56.2867 87.2433 56.3891 86.9494 56.3744 86.6494C56.3597 86.3495 56.229 86.067 56.01 85.8615C55.7909 85.6561 55.5007 85.5437 55.2004 85.5482L55.3138 87.8603ZM103.813 90.1362C103.204 90.0125 102.119 89.7052 100.954 89.1875C99.7823 88.6698 98.6057 87.9737 97.7467 87.1095L96.1059 88.7441C97.2434 89.8867 98.7037 90.7241 100.015 91.3047C101.334 91.8894 102.58 92.2493 103.357 92.406L103.813 90.1362ZM97.7467 87.1095C95.4779 84.8305 93.0163 79.7536 84.6209 78.4233L84.2579 80.7106C91.6788 81.8862 93.3793 86.0061 96.1059 88.7441L97.7467 87.1095ZM84.6209 78.4233C77.9229 77.3611 75.6985 77.5591 72.8616 78.115C70.2195 78.6337 67.0422 79.4566 58.19 79.6639L58.2446 81.977C67.2908 81.7666 70.6176 80.9158 73.3071 80.3878C75.8027 79.898 77.7414 79.6763 84.2589 80.7106L84.6199 78.4243L84.6209 78.4233ZM58.19 79.6639C56.673 79.699 55.4572 80.1506 54.6033 80.9736C53.7525 81.7924 53.3864 82.8608 53.3369 83.8941C53.2884 84.9191 53.5452 85.9566 53.9969 86.8342C54.4445 87.7046 55.1333 88.51 56.0326 88.9616L57.0721 86.8919C56.7225 86.7166 56.344 86.3351 56.0553 85.7751C55.7706 85.2294 55.6307 84.6197 55.649 84.0044C55.6768 83.4331 55.8686 82.968 56.21 82.6401C56.5472 82.3142 57.1556 82.0028 58.2446 81.977L58.19 79.6639ZM56.0326 88.9616C57.5228 89.7093 60.0277 90.1187 62.7966 90.1167C65.6077 90.1156 68.8603 89.6897 71.9149 88.6337L71.1579 86.4454C68.3859 87.4045 65.3943 87.8005 62.7945 87.8015C60.1524 87.8036 58.0807 87.3983 57.0721 86.8919L56.0326 88.9616ZM99.1553 106.98C97.8457 106.248 95.5759 105.176 92.9493 104.282C90.332 103.392 87.2826 102.653 84.4394 102.653V104.968C86.9237 104.968 89.7008 105.623 92.2037 106.474C94.6973 107.322 96.8392 108.339 98.0272 109.001L99.1553 106.98ZM84.4394 102.653C77.7848 102.653 68.3602 102.262 61.459 100.224L60.8032 102.444C68.0528 104.586 77.7744 104.968 84.4394 104.968V102.653ZM61.459 100.224C54.727 98.2357 49.313 95.7246 45.7954 91.4067L44.001 92.8691C47.9754 97.7469 53.9588 100.423 60.8032 102.444L61.459 100.224ZM45.7954 91.4067C43.8938 89.072 41.2342 85.9855 39.0799 82.9381C38.0053 81.4181 37.0854 79.9475 36.4636 78.6275C35.8263 77.2766 35.5726 76.2288 35.6448 75.5028L33.341 75.2728C33.2048 76.6361 33.6792 78.1521 34.3691 79.6144C35.0735 81.1097 36.0789 82.704 37.1896 84.2746C39.4047 87.4076 42.1571 90.6065 44.001 92.8691L45.7954 91.4067ZM35.6273 75.6131C35.8861 74.3158 36.5832 73.8126 37.1741 73.7053C37.8063 73.5888 38.6798 73.8538 39.3862 74.817L41.2527 73.4486C40.1214 71.9048 38.4147 71.1241 36.7585 71.4273C35.0632 71.7367 33.7648 73.1144 33.3575 75.1604L35.6283 75.6142L35.6273 75.6131ZM39.3862 74.817C41.2775 77.3993 43.8938 80.6632 46.6503 83.265C48.028 84.5654 49.4708 85.7297 50.9032 86.5588C52.3201 87.3797 53.8309 87.9345 55.3138 87.8603L55.2004 85.5482C54.3527 85.5895 53.2988 85.2708 52.0643 84.5551C50.8433 83.8487 49.545 82.8133 48.2394 81.581C45.6304 79.1173 43.1079 75.9823 41.2538 73.4496L39.3862 74.817Z" fill="#252D37"/>
<path fill-rule="evenodd" clip-rule="evenodd" d="M64.5588 24.0093C65.1982 24.0093 65.7158 24.528 65.7158 25.1674V32.6171C65.7205 32.772 65.6939 32.9263 65.6379 33.0708C65.5818 33.2153 65.4972 33.347 65.3893 33.4583C65.2813 33.5695 65.1522 33.6579 65.0094 33.7183C64.8667 33.7787 64.7133 33.8098 64.5583 33.8098C64.4033 33.8098 64.2499 33.7787 64.1071 33.7183C63.9644 33.6579 63.8352 33.5695 63.7272 33.4583C63.6193 33.347 63.5348 33.2153 63.4787 33.0708C63.4226 32.9263 63.3961 32.772 63.4007 32.6171V25.1674C63.4007 24.528 63.9194 24.0093 64.5588 24.0093ZM76.5429 25.6139C77.0792 25.9604 77.2339 26.6771 76.8863 27.2144L72.9841 33.2452C72.8138 33.495 72.5525 33.6683 72.2562 33.7281C71.9598 33.7878 71.6518 33.7293 71.398 33.565C71.1441 33.4008 70.9646 33.1437 70.8978 32.8489C70.8309 32.554 70.882 32.2447 71.0402 31.987L74.9424 25.9563C75.1094 25.6988 75.3718 25.5181 75.6718 25.4539C75.9719 25.3897 76.2852 25.4473 76.5429 25.6139ZM52.2343 27.2144C52.0762 26.9567 52.025 26.6474 52.0919 26.3525C52.1588 26.0577 52.3383 25.8007 52.5921 25.6364C52.8459 25.4721 53.1539 25.4136 53.4503 25.4734C53.7467 25.5332 54.0079 25.7065 54.1782 25.9563L58.0815 31.9881C58.1641 32.1157 58.2208 32.2584 58.2482 32.4079C58.2757 32.5574 58.2735 32.7109 58.2416 32.8596C58.2098 33.0082 58.149 33.1492 58.0627 33.2744C57.9764 33.3995 57.8662 33.5065 57.7386 33.5891C57.611 33.6717 57.4683 33.7283 57.3188 33.7558C57.1692 33.7833 57.0158 33.7811 56.8671 33.7492C56.7184 33.7174 56.5775 33.6566 56.4523 33.5702C56.3271 33.4839 56.2202 33.3738 56.1376 33.2462L52.2343 27.2144Z" fill="#FF8A56"/>
</svg>
