<svg width="132" height="132" viewBox="0 0 132 132" fill="none" xmlns="http://www.w3.org/2000/svg">
<path d="M66.0755 131.685C102.353 131.685 131.761 102.277 131.761 65.9999C131.761 29.7228 102.353 0.314453 66.0755 0.314453C29.7984 0.314453 0.390015 29.7228 0.390015 65.9999C0.390015 102.277 29.7984 131.685 66.0755 131.685Z" fill="white"/>
<path fill-rule="evenodd" clip-rule="evenodd" d="M42.8291 65.5711C39.6528 64.4491 33.1137 58.8061 32.366 45.2039C31.9174 38.9256 28.8154 37.6056 27.3211 37.7304C25.5144 37.3561 22.0143 38.3285 22.4629 45.2039C23.0229 53.7993 26.9468 66.3177 39.2795 67.4387L39.6415 67.6109L39.2805 67.7821C26.9478 68.903 23.0249 81.4214 22.4639 90.0158C22.0153 96.8922 25.5164 97.8636 27.3211 97.4903C28.8164 97.6151 31.9184 96.2941 32.367 90.0168C33.1147 76.4147 39.6538 70.7717 42.8301 69.6497C43.1374 69.4836 43.4623 69.2929 43.7788 69.0897L43.8387 69.0845L43.9016 69.0897C44.2182 69.2929 44.543 69.4836 44.8503 69.6497C48.0266 70.7717 54.5647 76.4147 55.3134 90.0168C55.7609 96.2951 58.8629 97.6151 60.3583 97.4903C62.164 97.8647 65.664 96.8922 65.2154 90.0168C64.6555 81.4214 60.7316 68.903 48.3999 67.7821L48.0369 67.6098L48.3978 67.4387C60.7305 66.3177 64.6544 53.7993 65.2144 45.2049C65.663 38.3275 62.1629 37.3571 60.3572 37.7304C58.8619 37.6056 55.7599 38.9267 55.3123 45.2039C54.5647 58.8061 48.0245 64.4491 44.8483 65.5711C44.5409 65.7371 44.2171 65.9279 43.8995 66.131L43.8397 66.1362L43.7768 66.131C43.468 65.9323 43.1518 65.7462 42.8291 65.5711ZM99.7871 45.2039C99.0394 58.8071 92.5013 64.4491 89.325 65.5721C89.0177 65.7381 88.6929 65.9289 88.3763 66.1321C88.3557 66.1337 88.335 66.1354 88.3144 66.1372C88.2938 66.1354 88.2732 66.1337 88.2525 66.1321C87.9434 65.9334 87.6269 65.7462 87.3038 65.5711C84.1275 64.4501 77.5884 58.8071 76.8407 45.2049C76.3921 38.9267 73.2912 37.6067 71.7958 37.7314C69.9901 37.3571 66.489 38.3296 66.9387 45.2049C67.4986 53.8004 71.4225 66.3187 83.7542 67.4397L84.1172 67.6119L83.7563 67.7831C71.4205 68.903 67.4976 81.4224 66.9366 90.0168C66.489 96.8932 69.9891 97.8647 71.7948 97.4914C73.2901 97.6151 76.3911 96.2951 76.8397 90.0168C77.5873 76.4147 84.1275 70.7717 87.3038 69.6497C87.6111 69.4836 87.9349 69.2929 88.2525 69.0897L88.3123 69.0845L88.3763 69.0897C88.6918 69.2929 89.0167 69.4836 89.324 69.6497C92.5003 70.7717 99.0404 76.4147 99.7871 90.0168C100.236 96.2951 103.338 97.6151 104.832 97.4903C106.639 97.8647 110.139 96.8922 109.69 90.0168C109.13 81.4214 105.206 68.903 92.8736 67.7821L92.5116 67.6098L92.8725 67.4387C105.204 66.3177 109.128 53.7993 109.689 45.2049C110.138 38.3275 106.638 37.3571 104.831 37.7304C103.336 37.6056 100.236 38.9267 99.7871 45.2039Z" fill="#4785C8"/>
<path d="M32.366 45.2047L33.521 45.1397V45.1211L32.366 45.2047ZM42.8291 65.5698L43.3818 64.553C43.3282 64.5239 43.2723 64.4991 43.2147 64.4787L42.8291 65.5698ZM27.3211 37.7302L27.086 38.8635C27.1953 38.8862 27.3067 38.8924 27.416 38.8841L27.3211 37.7291V37.7302ZM39.2785 67.4384L39.7735 66.3927C39.6505 66.3342 39.5182 66.2979 39.3826 66.2855L39.2785 67.4384ZM39.6404 67.6106L40.1354 68.6563C40.3337 68.5627 40.5013 68.4146 40.6186 68.2294C40.736 68.0441 40.7983 67.8294 40.7983 67.6101C40.7983 67.3908 40.736 67.1761 40.6186 66.9909C40.5013 66.8056 40.3337 66.6576 40.1354 66.5639L39.6404 67.6106ZM39.2795 67.7818L39.3837 68.9348C39.5196 68.9224 39.6523 68.8861 39.7755 68.8275L39.2795 67.7818ZM27.3201 97.4901L27.417 96.3371C27.3067 96.3279 27.1955 96.3345 27.087 96.3567L27.3211 97.4911L27.3201 97.4901ZM32.366 90.0166L33.521 90.0991V90.0795L32.366 90.0166ZM42.8291 69.6494L43.2147 70.7415C43.2725 70.7209 43.3282 70.6961 43.3818 70.6673L42.8291 69.6494ZM43.7778 69.0894L43.6891 67.9344C43.497 67.9491 43.3116 68.0115 43.1498 68.1159L43.7768 69.0894H43.7778ZM43.8376 69.0843L43.9253 67.9293C43.8669 67.9249 43.8083 67.9249 43.75 67.9293L43.8376 69.0843ZM43.9005 69.0894L44.5286 68.1159C44.3666 68.0119 44.1812 67.9498 43.9892 67.9355L43.9005 69.0894ZM44.8493 69.6494L44.2965 70.6673C44.3502 70.6961 44.4058 70.7209 44.4636 70.7415L44.8493 69.6494ZM55.3123 90.0166L54.1563 90.0795L54.1573 90.0991L55.3123 90.0166ZM60.3572 97.4901L60.5913 96.3567C60.4829 96.3341 60.3717 96.3272 60.2613 96.3361L60.3572 97.4901ZM48.4009 67.7818L47.9059 68.8275C48.0276 68.8863 48.1606 68.9224 48.2957 68.9348L48.4009 67.7818ZM48.0379 67.6096L47.5429 66.5639C47.3446 66.6576 47.1771 66.8056 47.0597 66.9909C46.9424 67.1761 46.8801 67.3908 46.8801 67.6101C46.8801 67.8294 46.9424 68.0441 47.0597 68.2294C47.1771 68.4146 47.3446 68.5627 47.5429 68.6563L48.0379 67.6096ZM48.3988 67.4384L48.2947 66.2855C48.1596 66.2979 48.0266 66.3339 47.9038 66.3927L48.3988 67.4384ZM60.3572 37.7302L60.2603 38.8831C60.3717 38.8934 60.483 38.8862 60.5913 38.8625L60.3572 37.7302ZM55.3123 45.2036L54.1573 45.1211L54.1563 45.1407L55.3123 45.2036ZM44.8472 65.5719L44.4615 64.4787C44.4048 64.4994 44.3481 64.5251 44.2945 64.554L44.8472 65.5719ZM43.8985 66.1318L43.9872 67.2868C44.179 67.2714 44.3646 67.2095 44.5265 67.1053L43.8995 66.1318H43.8985ZM43.8387 66.137L43.751 67.2909C43.8098 67.2951 43.8686 67.2951 43.9263 67.2909L43.8387 66.137ZM43.7757 66.1318L43.1487 67.1053C43.3107 67.2084 43.4963 67.2714 43.6881 67.2858L43.7757 66.1318ZM89.323 65.5708L88.9373 64.4798C88.8795 64.5004 88.8238 64.5251 88.7702 64.554L89.323 65.5708ZM99.7871 45.2047L98.6321 45.1222V45.1418L99.7871 45.2047ZM88.3763 66.1308L88.4608 67.2858C88.6547 67.2714 88.8414 67.2095 89.0043 67.1043L88.3763 66.1308ZM88.3144 66.1359L88.2216 67.2899C88.2835 67.2951 88.3453 67.2951 88.4062 67.2899L88.3134 66.1349L88.3144 66.1359ZM88.2525 66.1308L87.6255 67.1043C87.7885 67.2095 87.9751 67.2714 88.168 67.2858L88.2525 66.1308ZM87.3038 65.5698L87.8565 64.553C87.8029 64.5239 87.747 64.4991 87.6895 64.4787L87.3038 65.5698ZM76.8397 45.2047L77.9947 45.1407V45.1222L76.8397 45.2047ZM71.7948 37.7312L71.5597 38.8645C71.669 38.8872 71.7804 38.8934 71.8907 38.8852L71.7948 37.7312ZM83.7522 67.4384L84.2472 66.3927C84.1245 66.3344 83.9926 66.2981 83.8573 66.2855L83.7522 67.4384ZM84.1152 67.6106L84.6102 68.6563C84.8081 68.5624 84.9753 68.4142 85.0924 68.229C85.2095 68.0438 85.2716 67.8292 85.2716 67.6101C85.2716 67.391 85.2095 67.1764 85.0924 66.9912C84.9753 66.806 84.8081 66.6579 84.6102 66.5639L84.1152 67.6106ZM83.7542 67.7818L83.8573 68.9348C83.9933 68.9224 84.126 68.8861 84.2492 68.8275L83.7542 67.7818ZM71.7948 97.4911L71.8907 96.3361C71.7803 96.3271 71.6692 96.3341 71.5607 96.3567L71.7948 97.4911ZM76.8397 90.0166L77.9947 90.0991L77.9957 90.0805L76.8397 90.0166ZM87.3038 69.6494L87.6884 70.7425C87.7462 70.7219 87.8019 70.6972 87.8555 70.6673L87.3038 69.6494ZM88.2525 69.0894L88.1638 67.9344C87.9718 67.9491 87.7864 68.0115 87.6245 68.1159L88.2525 69.0894ZM88.3123 69.0843L88.4041 67.9303C88.3444 67.9256 88.2844 67.9256 88.2247 67.9303L88.3123 69.0843ZM88.3763 69.0894L89.0033 68.1159C88.8402 68.0109 88.6533 67.9485 88.4598 67.9344L88.3763 69.0894ZM89.324 69.6494L88.7712 70.6673C88.8249 70.6961 88.8806 70.7209 88.9383 70.7415L89.324 69.6494ZM99.7871 90.0166L98.6321 90.0795V90.0991L99.7871 90.0166ZM104.832 97.4901L105.067 96.3567C104.958 96.3341 104.847 96.3271 104.736 96.3361L104.832 97.4901ZM92.8746 67.7818L92.3796 68.8275C92.5023 68.8863 92.6343 68.9224 92.7704 68.9348L92.8746 67.7818ZM92.5126 67.6096L92.0176 66.5639C91.8197 66.6579 91.6525 66.806 91.5354 66.9912C91.4183 67.1764 91.3562 67.391 91.3562 67.6101C91.3562 67.8292 91.4183 68.0438 91.5354 68.229C91.6525 68.4142 91.8197 68.5624 92.0176 68.6563L92.5126 67.6096ZM92.8736 67.4384L92.7684 66.2855C92.6343 66.2979 92.5002 66.3339 92.3786 66.3927L92.8736 67.4384ZM104.832 37.7302L104.736 38.8831C104.846 38.8934 104.958 38.8862 105.067 38.8625L104.832 37.7302ZM31.21 45.2665C31.9762 59.2111 38.7195 65.346 42.4444 66.6609L43.2147 64.4787C40.5851 63.5506 34.2501 58.3995 33.521 45.1397L31.21 45.2665ZM27.417 38.8831C27.7883 38.8522 28.5957 38.9976 29.3867 39.8514C30.1746 40.7012 30.9996 42.3213 31.211 45.2861L33.521 45.1211C33.2838 41.8057 32.334 39.6266 31.0852 38.2778C29.8394 36.933 28.3472 36.4813 27.2242 36.5752L27.417 38.8821V38.8831ZM23.6179 45.1273C23.4044 41.8614 24.149 40.2887 24.8688 39.5617C25.1513 39.2703 25.5019 39.0538 25.889 38.9317C26.2761 38.8096 26.6874 38.7869 27.086 38.8635L27.5552 36.5948C26.779 36.44 25.9764 36.4813 25.2202 36.7149C24.4639 36.9484 23.7778 37.3668 23.224 37.9323C21.8534 39.3173 21.0717 41.6685 21.3079 45.2789L23.6179 45.1273ZM39.3837 66.2844C33.6612 65.7647 29.8962 62.6266 27.4511 58.5294C24.9833 54.3941 23.8912 49.3132 23.6179 45.1273L21.3079 45.2789C21.5956 49.6885 22.7455 55.1634 25.4628 59.7154C28.2028 64.3086 32.565 67.9901 39.1743 68.5903L39.3837 66.2844ZM40.1365 66.5629L39.7755 66.3917L38.7835 68.4841L39.1465 68.6553L40.1365 66.5629ZM39.7755 68.8275L40.1365 68.6553L39.1465 66.5629L38.7855 66.7341L39.7755 68.8275ZM23.6189 90.0909C23.8922 85.905 24.9843 80.824 27.4521 76.6887C29.8962 72.5916 33.6623 69.4535 39.3847 68.9337L39.1753 66.6279C32.5661 67.228 28.2039 70.9096 25.4638 75.5018C22.7465 80.0547 21.5967 85.5307 21.3079 89.9393L23.6189 90.0909ZM27.087 96.3557C26.6885 96.4322 26.2771 96.4084 25.8901 96.2863C25.503 96.1643 25.1524 95.9478 24.8698 95.6565C24.1511 94.9295 23.4055 93.3568 23.6189 90.0909L21.3089 89.9403C21.0728 93.5497 21.8555 95.9009 23.225 97.2859C23.7788 97.8513 24.4649 98.2698 25.2212 98.5033C25.9775 98.7368 26.78 98.7781 27.5562 98.6234L27.087 96.3557ZM31.212 89.9331C31.0006 92.8969 30.1756 94.5159 29.3867 95.3667C28.5968 96.2206 27.7903 96.367 27.4181 96.3361L27.2262 98.643C28.3482 98.7358 29.8405 98.2852 31.0862 96.9404C32.3351 95.5915 33.2848 93.4125 33.522 90.0981L31.212 89.9331ZM42.4454 68.5573C38.7206 69.8722 31.9772 76.0081 31.211 89.9527L33.5231 90.0795C34.2511 76.8197 40.5861 71.6696 43.2147 70.7415L42.4454 68.5573ZM43.1508 68.1149C42.8621 68.3016 42.563 68.4769 42.2784 68.6305L43.3818 70.6673C43.7128 70.4878 44.0624 70.2816 44.4058 70.0609L43.1508 68.1149ZM43.75 67.9293L43.6902 67.9334L43.8655 70.2424L43.9273 70.2372L43.75 67.9293ZM43.9902 67.9344L43.9253 67.9293L43.751 70.2383L43.8139 70.2424L43.9892 67.9355L43.9902 67.9344ZM45.402 68.6316C45.1174 68.4769 44.8173 68.3016 44.5286 68.1159L43.2746 70.0609C43.6169 70.2826 43.9676 70.4868 44.2976 70.6662L45.402 68.6316ZM56.4684 89.9516C55.7032 76.0071 48.9588 69.8722 45.235 68.5573L44.4646 70.7405C47.0933 71.6686 53.4282 76.8187 54.1573 90.0785L56.4684 89.9516ZM60.2613 96.3361C59.8901 96.367 59.0836 96.2206 58.2916 95.3667C57.5048 94.5159 56.6798 92.8969 56.4673 89.932L54.1584 90.097C54.3956 93.4125 55.3443 95.5915 56.5942 96.9404C57.8399 98.2852 59.3311 98.7369 60.4542 98.643L60.2613 96.3361ZM64.0604 90.0909C64.2739 93.3568 63.5293 94.9295 62.8095 95.6565C62.527 95.9478 62.1764 96.1643 61.7893 96.2863C61.4022 96.4084 60.9909 96.4322 60.5923 96.3557L60.1231 98.6234C60.8994 98.7781 61.7019 98.7368 62.4582 98.5033C63.2144 98.2698 63.9005 97.8513 64.4544 97.2859C65.8259 95.9009 66.6066 93.5497 66.3715 89.9403L64.0604 90.0909ZM48.2947 68.9337C54.0181 69.4535 57.7832 72.5916 60.2283 76.6887C62.6961 80.824 63.7882 85.905 64.0604 90.0909L66.3715 89.9403C66.0848 85.5307 64.9329 80.0547 62.2166 75.5028C59.4755 70.9096 55.1133 67.228 48.504 66.6279L48.2947 68.9337ZM47.5419 68.6553L47.9038 68.8265L48.8949 66.7341L48.5329 66.5629L47.5419 68.6553ZM47.9028 66.3917L47.5419 66.5629L48.5329 68.6553L48.8938 68.4841L47.9028 66.3917ZM64.0594 45.1273C63.7861 49.3132 62.6951 54.3941 60.2273 58.5294C57.7832 62.6266 54.0161 65.7647 48.2937 66.2844L48.503 68.5903C55.1133 67.9901 59.4755 64.3086 62.2155 59.7164C64.9318 55.1634 66.0817 49.6875 66.3694 45.2789L64.0594 45.1273ZM60.5913 38.8625C60.9899 38.7859 61.4012 38.8098 61.7883 38.9318C62.1753 39.0539 62.5259 39.2703 62.8085 39.5617C63.5283 40.2887 64.2729 41.8614 64.0594 45.1273L66.3694 45.2789C66.6056 41.6695 65.8239 39.3173 64.4544 37.9333C63.9006 37.3677 63.2146 36.9491 62.4583 36.7153C61.7021 36.4816 60.8994 36.4402 60.1231 36.5948L60.5913 38.8625ZM56.4663 45.2851C56.6787 42.3213 57.5037 40.7012 58.2916 39.8514C59.0816 38.9976 59.889 38.8511 60.2613 38.8821L60.4531 36.5752C59.3291 36.4824 57.8389 36.933 56.5921 38.2778C55.3443 39.6266 54.3935 41.8067 54.1573 45.1211L56.4663 45.2851ZM45.2339 66.6619C48.9578 65.347 55.7011 59.2121 56.4673 45.2676L54.1563 45.1407C53.4272 58.4005 47.0912 63.5506 44.4615 64.4787L45.2339 66.6619ZM44.5275 67.1043C44.8173 66.9176 45.1164 66.7413 45.401 66.5876L44.2955 64.553C43.9655 64.7324 43.6159 64.9366 43.2735 65.1583L44.5275 67.1043ZM43.9284 67.2899L43.9882 67.2858L43.8129 64.9768L43.752 64.9809L43.9273 67.2899H43.9284ZM43.6891 67.2848L43.752 67.2899L43.9273 64.9809L43.8655 64.9768L43.6891 67.2848ZM42.2763 66.5876C42.5609 66.7423 42.86 66.9176 43.1498 67.1033L44.4038 65.1583C44.0707 64.9439 43.7299 64.742 43.3818 64.553L42.2763 66.5876ZM89.7086 66.6619C93.4335 65.347 100.176 59.2121 100.943 45.2676L98.631 45.1407C97.903 58.4005 91.567 63.5506 88.9383 64.4787L89.7086 66.6619ZM89.0043 67.1043C89.2931 66.9176 89.5911 66.7413 89.8757 66.5876L88.7712 64.553C88.4412 64.7324 88.0906 64.9366 87.7482 65.1583L89.0043 67.1043ZM88.4062 67.2899L88.4608 67.2858L88.2917 64.9758L88.2216 64.982L88.4062 67.2899ZM88.168 67.2858L88.2216 67.2899L88.4041 64.982C88.3811 64.9802 88.3581 64.9785 88.335 64.9768L88.168 67.2858ZM86.751 66.5876C87.0346 66.7423 87.3347 66.9176 87.6245 67.1033L88.8785 65.1583C88.5451 64.9439 88.2049 64.742 87.8565 64.553L86.751 66.5876ZM75.6837 45.2676C76.4499 59.2121 83.1932 65.347 86.9181 66.6619L87.6895 64.4787C85.0608 63.5506 78.7238 58.4005 77.9947 45.1407L75.6837 45.2676ZM71.8907 38.8852C72.262 38.8542 73.0694 38.9986 73.8604 39.8525C74.6483 40.7022 75.4733 42.3223 75.6857 45.2872L77.9947 45.1222C77.7575 41.8067 76.8087 39.6277 75.5589 38.2788C74.3131 36.934 72.8219 36.4824 71.6989 36.5762L71.8907 38.8831V38.8852ZM68.0916 45.1284C67.8792 41.8624 68.6237 40.2897 69.3425 39.5627C69.6251 39.2714 69.9757 39.0549 70.3627 38.9329C70.7498 38.8108 71.1611 38.788 71.5597 38.8645L72.0289 36.5958C71.2527 36.4411 70.4501 36.4824 69.6938 36.7159C68.9376 36.9494 68.2515 37.3679 67.6977 37.9333C66.3271 39.3183 65.5465 41.6695 65.7816 45.2799L68.0916 45.1284ZM83.8573 66.2855C78.1349 65.7657 74.3698 62.6276 71.9247 58.5305C69.457 54.3952 68.3649 49.3142 68.0916 45.1284L65.7816 45.2799C66.0693 49.6896 67.2192 55.1645 69.9365 59.7164C72.6765 64.3096 77.0387 67.9912 83.648 68.5914L83.8573 66.2855ZM84.6102 66.5639L84.2472 66.3927L83.2582 68.4851L83.6202 68.6563L84.6102 66.5639ZM84.2492 68.8275L84.6102 68.6563L83.6202 66.5639L83.2592 66.7351L84.2492 68.8285V68.8275ZM68.0916 90.0919C68.3649 85.9071 69.457 80.8251 71.9247 76.6898C74.3688 72.5936 78.1349 69.4545 83.8573 68.9348L83.649 66.6289C77.0387 67.2301 72.6765 70.9106 69.9365 75.5028C67.2192 80.0568 66.0693 85.5317 65.7816 89.9413L68.0916 90.0919ZM71.5607 96.3567C71.1622 96.4333 70.7508 96.4094 70.3638 96.2874C69.9767 96.1653 69.6261 95.9489 69.3435 95.6575C68.6237 94.9305 67.8781 93.3579 68.0916 90.0919L65.7816 89.9413C65.5444 93.5507 66.3282 95.9019 67.6977 97.2869C68.2515 97.8524 68.9376 98.2708 69.6938 98.5043C70.4501 98.7379 71.2527 98.7792 72.0289 98.6244L71.5607 96.3567ZM75.6857 89.9341C75.4733 92.8979 74.6483 94.518 73.8604 95.3688C73.0694 96.2216 72.263 96.367 71.8907 96.3361L71.6989 98.644C72.8219 98.7379 74.3131 98.2862 75.5589 96.9414C76.8077 95.5926 77.7575 93.4135 77.9947 90.0991L75.6857 89.9341ZM86.9181 68.5584C83.1942 69.8732 76.4509 76.0081 75.6837 89.9527L77.9957 90.0805C78.7248 76.8197 85.0598 71.6696 87.6895 70.7415L86.9181 68.5584ZM87.6245 68.1159C87.3347 68.3026 87.0357 68.4789 86.751 68.6326L87.8555 70.6673C88.1855 70.4878 88.5361 70.2826 88.8785 70.0619L87.6245 68.1159ZM88.2247 67.9303L88.1638 67.9344L88.3391 70.2434L88.401 70.2383L88.2247 67.9303ZM88.4598 67.9344L88.4041 67.9303L88.2206 70.2383L88.2927 70.2434L88.4598 67.9344ZM89.8757 68.6326C89.5921 68.4779 89.2931 68.3016 89.0033 68.1159L87.7493 70.0619C88.0917 70.2836 88.4412 70.4878 88.7712 70.6673L89.8757 68.6326ZM100.943 89.9527C100.177 76.0081 93.4335 69.8732 89.7086 68.5584L88.9383 70.7415C91.568 71.6696 97.903 76.8197 98.6321 90.0795L100.943 89.9527ZM104.736 96.3361C104.364 96.367 103.557 96.2216 102.766 95.3678C101.978 94.517 101.153 92.8979 100.942 89.9331L98.6321 90.0991C98.8692 93.4146 99.819 95.5926 101.068 96.9414C102.314 98.2862 103.806 98.7379 104.929 98.644L104.736 96.3361ZM108.535 90.0919C108.749 93.3579 108.004 94.9305 107.284 95.6575C107.002 95.9489 106.651 96.1653 106.264 96.2874C105.877 96.4094 105.466 96.4333 105.067 96.3567L104.598 98.6244C105.374 98.7793 106.177 98.738 106.933 98.5045C107.689 98.2709 108.375 97.8524 108.929 97.2869C110.3 95.9019 111.081 93.5507 110.845 89.9413L108.535 90.0919ZM92.7704 68.9348C98.4928 69.4545 102.258 72.5916 104.703 76.6887C107.171 80.824 108.263 85.905 108.536 90.0909L110.846 89.9403C110.558 85.5307 109.409 80.0547 106.691 75.5028C103.951 70.9096 99.5891 67.228 92.9798 66.6279L92.7704 68.9348ZM92.0176 68.6553L92.3786 68.8265L93.3706 66.7341L93.0076 66.5629L92.0176 68.6553ZM92.3786 66.3927L92.0176 66.5639L93.0076 68.6553L93.3686 68.4841L92.3786 66.3907V66.3927ZM108.535 45.1273C108.262 49.3132 107.17 54.3941 104.702 58.5294C102.258 62.6266 98.4918 65.7657 92.7684 66.2855L92.9787 68.5903C99.588 67.9901 103.95 64.3086 106.69 59.7164C109.408 55.1634 110.557 49.6875 110.845 45.2789L108.535 45.1273ZM105.067 38.8625C105.466 38.7859 105.877 38.8098 106.264 38.9318C106.651 39.0539 107.002 39.2703 107.284 39.5617C108.003 40.2887 108.748 41.8614 108.535 45.1273L110.845 45.2789C111.08 41.6695 110.3 39.3173 108.929 37.9333C108.375 37.3676 107.689 36.9489 106.933 36.7152C106.177 36.4815 105.374 36.4401 104.598 36.5948L105.067 38.8625ZM100.942 45.2851C101.153 42.3213 101.978 40.7012 102.767 39.8514C103.557 38.9976 104.364 38.8511 104.736 38.8821L104.928 36.5752C103.805 36.4824 102.314 36.933 101.068 38.2778C99.819 39.6266 98.8692 41.8057 98.6321 45.1201L100.942 45.2851Z" fill="#4785C8"/>
<path fill-rule="evenodd" clip-rule="evenodd" d="M60.5016 38.8668C61.1008 38.7501 61.722 38.8707 62.2341 39.203C62.8064 39.5753 63.4685 40.3601 63.7738 42.0245C63.8012 42.174 63.8578 42.3167 63.9403 42.4443C64.0229 42.5719 64.1298 42.6821 64.2549 42.7684C64.38 42.8547 64.5209 42.9156 64.6695 42.9474C64.8181 42.9793 64.9716 42.9816 65.1211 42.9542C65.2706 42.9268 65.4132 42.8702 65.5409 42.7876C65.6685 42.7051 65.7786 42.5982 65.865 42.4731C65.9513 42.3479 66.0121 42.2071 66.044 42.0584C66.0759 41.9098 66.0782 41.7564 66.0508 41.6069C65.6568 39.4577 64.7101 38.0511 63.4933 37.2612C62.4687 36.5963 61.2244 36.3594 60.0272 36.6012C59.7357 36.6729 59.4835 36.8549 59.3236 37.109C59.1638 37.3631 59.1088 37.6693 59.1703 37.9631C59.2318 38.2569 59.405 38.5153 59.6534 38.6839C59.9017 38.8525 60.2058 38.9181 60.5016 38.8668ZM56.4426 45.2709C56.4509 45.1191 56.4291 44.9671 56.3787 44.8237C56.3282 44.6803 56.25 44.5482 56.1485 44.435C56.047 44.3218 55.9242 44.2297 55.7871 44.164C55.65 44.0983 55.5013 44.0602 55.3495 44.0519C55.1977 44.0437 55.0457 44.0654 54.9023 44.1159C54.7589 44.1663 54.6268 44.2446 54.5136 44.3461C54.4004 44.4476 54.3083 44.5704 54.2426 44.7075C54.1769 44.8446 54.1388 44.9933 54.1305 45.1451C53.6293 54.384 50.4335 59.7104 47.6605 62.3896C47.4396 62.603 47.3125 62.8953 47.3072 63.2023C47.3019 63.5093 47.4188 63.8059 47.6321 64.0267C47.8454 64.2476 48.1378 64.3747 48.4448 64.38C48.7518 64.3853 49.0484 64.2684 49.2692 64.0551C52.5177 60.916 55.9146 55.011 56.4426 45.2699V45.2709ZM100.941 89.9343C101.152 92.8992 101.977 94.5182 102.765 95.369C103.556 96.2219 104.363 96.3693 104.735 96.3384C104.886 96.3258 105.039 96.3432 105.184 96.3895C105.328 96.4358 105.463 96.5102 105.579 96.6084C105.695 96.7066 105.79 96.8267 105.86 96.9618C105.929 97.0969 105.972 97.2445 105.984 97.3959C105.997 97.5474 105.98 97.6999 105.933 97.8446C105.887 97.9894 105.813 98.1236 105.714 98.2396C105.616 98.3557 105.496 98.4512 105.361 98.5208C105.226 98.5904 105.078 98.6327 104.927 98.6453C103.804 98.7381 102.313 98.2874 101.067 96.9417C99.818 95.5938 98.8672 93.4148 98.631 90.0993C98.6176 89.9463 98.6348 89.792 98.6815 89.6457C98.7283 89.4993 98.8037 89.3637 98.9034 89.2468C99.0031 89.1299 99.1251 89.0339 99.2622 88.9646C99.3994 88.8953 99.5489 88.854 99.7022 88.843C99.8555 88.8321 100.009 88.8517 100.155 88.9009C100.301 88.95 100.435 89.0276 100.55 89.1292C100.666 89.2307 100.759 89.3542 100.827 89.4925C100.894 89.6307 100.933 89.7809 100.941 89.9343ZM110.844 89.9426C110.859 90.2463 110.755 90.5439 110.552 90.771C110.35 90.9981 110.066 91.1365 109.763 91.1563C109.459 91.1761 109.16 91.0756 108.93 90.8767C108.7 90.6778 108.557 90.3963 108.533 90.0931C108.321 86.8282 107.608 83.0002 106.121 79.5022C104.633 76.0032 102.401 72.9032 99.1889 70.9707C98.9351 70.808 98.7548 70.5528 98.6861 70.2593C98.6175 69.9658 98.666 69.6571 98.8213 69.3988C98.9767 69.1405 99.2266 68.9529 99.518 68.8759C99.8095 68.7989 100.119 68.8386 100.382 68.9865C104.138 71.245 106.639 74.8028 108.252 78.5957C109.863 82.3887 110.618 86.4848 110.844 89.9426ZM106.706 39.203C106.194 38.8709 105.573 38.7504 104.974 38.8668C104.676 38.9235 104.368 38.8609 104.115 38.6925C103.863 38.5241 103.687 38.2633 103.624 37.9663C103.562 37.6693 103.619 37.3598 103.783 37.1043C103.947 36.8488 104.204 36.6678 104.5 36.6001C105.698 36.3584 106.942 36.5957 107.967 37.2612C109.184 38.0511 110.129 39.4577 110.523 41.6069C110.551 41.7564 110.549 41.9098 110.517 42.0584C110.485 42.2071 110.424 42.3479 110.338 42.4731C110.251 42.5982 110.141 42.7051 110.014 42.7876C109.886 42.8702 109.743 42.9268 109.594 42.9542C109.444 42.9816 109.291 42.9793 109.142 42.9474C108.994 42.9156 108.853 42.8547 108.728 42.7684C108.602 42.6821 108.496 42.5719 108.413 42.4443C108.33 42.3167 108.274 42.174 108.246 42.0245C107.941 40.3601 107.279 39.5753 106.706 39.203ZM99.8221 44.0519C99.9739 44.0601 100.123 44.0981 100.26 44.1637C100.397 44.2294 100.519 44.3214 100.621 44.4345C100.722 44.5476 100.801 44.6796 100.851 44.8229C100.902 44.9662 100.923 45.1181 100.915 45.2699C100.387 55.011 96.9903 60.916 93.7419 64.0551C93.6334 64.1649 93.504 64.2518 93.3614 64.3109C93.2189 64.37 93.0659 64.3999 92.9116 64.399C92.7572 64.3981 92.6046 64.3664 92.4628 64.3057C92.3209 64.245 92.1925 64.1565 92.0853 64.0455C91.9781 63.9345 91.8941 63.8032 91.8384 63.6593C91.7826 63.5154 91.7562 63.3618 91.7607 63.2075C91.7651 63.0533 91.8004 62.9014 91.8643 62.761C91.9283 62.6205 92.0197 62.4943 92.1331 62.3896C94.9062 59.7104 98.102 54.384 98.6032 45.1451C98.62 44.8385 98.7578 44.5511 98.9864 44.3462C99.2149 44.1412 99.5155 44.0354 99.8221 44.0519ZM68.0328 93.7716C68.0077 93.6183 67.9521 93.4716 67.8692 93.3403C67.7862 93.2089 67.6777 93.0956 67.5501 93.007C67.4225 92.9185 67.2784 92.8565 67.1263 92.8248C66.9742 92.7931 66.8173 92.7923 66.665 92.8225C66.5126 92.8526 66.3678 92.9132 66.2393 93.0004C66.1108 93.0877 66.0012 93.1999 65.9169 93.3304C65.8327 93.4609 65.7756 93.607 65.7489 93.7601C65.7223 93.9131 65.7268 94.0699 65.762 94.2212C66.157 96.2157 67.1748 97.4542 68.3979 98.1111C69.3913 98.6388 70.5337 98.8157 71.6401 98.6133C71.9327 98.5452 72.1874 98.3659 72.3504 98.1135C72.5133 97.8611 72.5718 97.5552 72.5134 97.2605C72.4551 96.9657 72.2845 96.7052 72.0376 96.5339C71.7908 96.3627 71.487 96.294 71.1905 96.3425C70.6107 96.4407 70.0147 96.3458 69.4941 96.0723C68.931 95.7702 68.3051 95.1452 68.0328 93.7716ZM22.6733 92.861C22.9745 92.8013 23.2872 92.8636 23.5425 93.0344C23.7978 93.2052 23.9748 93.4703 24.0345 93.7716C24.3057 95.1463 24.9317 95.7702 25.4948 96.0713C26.0153 96.3451 26.6113 96.4404 27.1912 96.3425C27.4877 96.294 27.7915 96.3627 28.0383 96.5339C28.2852 96.7052 28.4558 96.9657 28.5141 97.2605C28.5725 97.5552 28.514 97.8611 28.3511 98.1135C28.1881 98.3659 27.9334 98.5452 27.6408 98.6133C26.5343 98.8161 25.3918 98.6391 24.3986 98.1111C23.1755 97.4542 22.1577 96.2157 21.7627 94.2212C21.7032 93.9201 21.7658 93.6077 21.9365 93.3527C22.1072 93.0976 22.3722 92.9208 22.6733 92.861ZM31.212 45.2894C31.0006 42.3256 30.1746 40.7066 29.3867 39.8558C28.5968 39.0019 27.7903 38.8555 27.417 38.8864C27.117 38.9012 26.823 38.7988 26.597 38.6009C26.3711 38.403 26.2309 38.125 26.206 37.8257C26.1811 37.5263 26.2735 37.229 26.4636 36.9965C26.6538 36.764 26.9269 36.6145 27.2252 36.5795C28.3493 36.4867 29.8405 36.9374 31.0862 38.2821C32.334 39.631 33.2848 41.81 33.521 45.1244C33.5373 45.279 33.5224 45.4352 33.4771 45.5838C33.4317 45.7325 33.357 45.8705 33.2572 45.9896C33.1575 46.1087 33.0347 46.2066 32.8964 46.2773C32.758 46.348 32.6069 46.3902 32.4519 46.4012C32.2969 46.4123 32.1412 46.3921 31.9942 46.3418C31.8472 46.2914 31.7118 46.212 31.5961 46.1083C31.4805 46.0046 31.3868 45.8786 31.3208 45.7379C31.2549 45.5972 31.2178 45.4447 31.212 45.2894ZM21.3089 45.2822C21.2994 44.9819 21.4069 44.6896 21.6089 44.4672C21.8108 44.2447 22.0913 44.1094 22.3911 44.0898C22.6909 44.0703 22.9866 44.168 23.2157 44.3624C23.4448 44.5568 23.5894 44.8327 23.6189 45.1317C23.8324 48.3966 24.545 52.2246 26.0321 55.7226C27.5191 59.2206 29.7507 62.3216 32.9631 64.2541C33.2131 64.4184 33.3899 64.6731 33.4563 64.9648C33.5228 65.2566 33.4737 65.5627 33.3195 65.819C33.1652 66.0754 32.9178 66.2621 32.6289 66.3401C32.34 66.418 32.0322 66.3812 31.7699 66.2372C28.0141 63.9788 25.5133 60.421 23.9015 56.6291C22.2886 52.8361 21.5337 48.74 21.3089 45.2822ZM76.7778 91.1729C76.626 91.1647 76.4772 91.1267 76.3401 91.061C76.203 90.9953 76.0801 90.9032 75.9786 90.79C75.8771 90.6768 75.7989 90.5447 75.7484 90.4012C75.698 90.2577 75.6763 90.1057 75.6847 89.9539C76.2147 80.3158 79.589 74.4336 82.8467 71.2687C83.0687 71.0637 83.362 70.9535 83.6641 70.9617C83.9661 70.9699 84.253 71.0959 84.4635 71.3127C84.674 71.5295 84.7914 71.82 84.7906 72.1222C84.7899 72.4243 84.6711 72.7142 84.4596 72.93C81.6711 75.6381 78.499 80.948 77.9967 90.0797C77.98 90.3863 77.8421 90.6736 77.6136 90.8786C77.385 91.0836 77.0844 91.1894 76.7778 91.1729ZM31.212 89.9539C31.207 90.2534 31.3182 90.5432 31.5223 90.7624C31.7264 90.9816 32.0074 91.1133 32.3065 91.1297C32.6056 91.1461 32.8994 91.046 33.1262 90.8504C33.353 90.6548 33.4953 90.379 33.5231 90.0808C34.0253 80.948 37.1974 75.6381 39.9859 72.93C40.0949 72.8241 40.182 72.6978 40.2422 72.5582C40.3024 72.4187 40.3345 72.2686 40.3367 72.1167C40.3389 71.9647 40.3112 71.8138 40.255 71.6725C40.1989 71.5313 40.1155 71.4025 40.0096 71.2934C39.9037 71.1844 39.7774 71.0973 39.6378 71.0371C39.4983 70.977 39.3482 70.9448 39.1962 70.9426C39.0443 70.9404 38.8933 70.9682 38.7521 71.0243C38.6109 71.0804 38.482 71.1638 38.373 71.2697C35.1153 74.4326 31.7421 80.3158 31.212 89.9539Z" fill="#252D37"/>
<path d="M87.8999 47.8992C86.2139 48.3175 84.6749 49.19 83.45 50.4216C82.2676 51.6101 81.4632 53.1217 81.138 54.7663L80.6295 57.396L80.1211 54.7663C79.7959 53.1217 78.9915 51.6101 77.8091 50.4216C76.5844 49.1902 75.0458 48.3178 73.3603 47.8992C75.0462 47.4814 76.5853 46.6093 77.8101 45.3778C78.9928 44.1889 79.797 42.6764 80.1211 41.0311L80.6295 38.4014L81.138 41.0311C81.4621 42.6764 82.2662 44.1889 83.449 45.3778C84.6741 46.6095 86.2136 47.4816 87.8999 47.8992ZM36.6797 63.468C34.9939 63.8861 33.4549 64.7581 32.2299 65.9894C31.0475 67.1778 30.2431 68.6894 29.9178 70.334L29.4094 72.9637L28.901 70.334C28.5757 68.6895 27.7713 67.1779 26.589 65.9894C25.3643 64.7579 23.8257 63.8855 22.1401 63.4669C23.8261 63.0492 25.3652 62.1771 26.59 60.9455C27.7726 59.757 28.5768 58.2449 28.901 56.5998L29.4094 53.9701L29.9178 56.5998C30.2421 58.2449 31.0462 59.757 32.2289 60.9455C33.4539 62.1773 34.9934 63.0494 36.6797 63.4669V63.468Z" fill="#FDFAEE" stroke="#FF8A56" stroke-width="2.31516" stroke-linecap="round" stroke-linejoin="round"/>
</svg>
